<svg width="26" height="26" viewBox="0 0 26 26" fill="none" xmlns="http://www.w3.org/2000/svg">
<g opacity="0.3">
<rect x="1.24951" y="1.25" width="23.5" height="23.5" rx="2.75" stroke="black" stroke-width="1.5"/>
<rect x="5.24951" y="5.25" width="15.5" height="15.5" rx="7.75" stroke="black" stroke-width="1.5"/>
<path d="M10.3575 18V16.096H9.13951V15.186H10.3575V13.94H9.13951V12.876H10.3575V8.004H12.9895C14.2122 8.004 15.1175 8.25133 15.7055 8.746C16.3028 9.24067 16.6015 9.95933 16.6015 10.902C16.6015 11.854 16.2795 12.6007 15.6355 13.142C14.9915 13.674 14.0442 13.94 12.7935 13.94H11.6175V15.186H13.9275V16.096H11.6175V18H10.3575ZM11.6175 12.876H12.6115C13.4608 12.876 14.1188 12.736 14.5855 12.456C15.0615 12.176 15.2995 11.672 15.2995 10.944C15.2995 10.3093 15.1035 9.838 14.7115 9.53C14.3195 9.222 13.7082 9.068 12.8775 9.068H11.6175V12.876Z" fill="black"/>
</g>
</svg>
