<svg width="26" height="26" viewBox="0 0 26 26" fill="none" xmlns="http://www.w3.org/2000/svg">
<g opacity="0.3">
<rect x="1.24951" y="1.25" width="23.5" height="23.5" rx="2.75" stroke="black" stroke-width="1.5"/>
<path d="M11.5495 6.49985V6.49987V8.96619C16.5134 9.26581 20.0496 13.6112 20.0496 19.5C20.0496 19.7696 19.8542 19.9994 19.5882 20.0428M11.5495 6.49985L19.5882 20.0428M11.5495 6.49985C11.5494 6.19609 11.3031 5.94991 10.9993 5.95L11.5495 6.49985ZM19.5882 20.0428L19.5801 19.9935L19.5883 20.0428C19.5882 20.0428 19.5882 20.0428 19.5882 20.0428ZM10.5908 6.1319L10.5908 6.13188C10.6951 6.01617 10.8435 5.95003 10.9993 5.95L10.5908 6.1319ZM10.5908 6.1319L6.09081 11.132L6.09077 11.132M10.5908 6.1319L6.09077 11.132M6.09077 11.132C5.90975 11.3336 5.9025 11.637 6.07372 11.847L6.07378 11.8471M6.09077 11.132L6.07378 11.8471M6.07378 11.8471L10.5738 17.3471C10.7662 17.5822 11.1127 17.6169 11.3478 17.4246L11.3161 17.3859M6.07378 11.8471L11.3161 17.3859M11.3161 17.3859L11.3478 17.4246C11.4751 17.3204 11.5492 17.1646 11.5495 17.0001V17M11.3161 17.3859L11.5495 17M11.5495 17V13.5602M11.5495 17V13.5602M11.5495 13.5602C15.4422 13.7095 17.8763 16.3689 18.9782 19.6743L18.9782 19.6743C19.0531 19.8986 19.263 20.0498 19.4994 20.05L11.5495 13.5602ZM10.9995 12.4499C10.6957 12.4499 10.4495 12.6962 10.4495 12.9999V15.4599L7.22385 11.5169L10.4495 7.93315V9.49986C10.4495 9.80363 10.6958 10.0499 10.9995 10.0499C14.8286 10.0499 17.7156 12.6483 18.638 16.6484C17.0144 14.4742 14.4574 12.4499 10.9995 12.4499Z" fill="#272621" stroke="#272621" stroke-width="0.1"/>
</g>
</svg>
