<svg width="24" height="24" viewBox="0 0 24 24" fill="none" xmlns="http://www.w3.org/2000/svg">
<g opacity="0.3" clip-path="url(#clip0)">
<path d="M21.4281 2.57143H18.8567V0.857159C18.8567 0.383755 18.4729 0 17.9995 0C17.5261 0 17.1423 0.383755 17.1423 0.857159V2.57143H6.85663V0.857159C6.85663 0.383755 6.47288 0 5.99952 0C5.52617 0 5.14237 0.383755 5.14237 0.857159V2.57143H2.57094C1.15078 2.57143 -0.000488281 3.72269 -0.000488281 5.14285V21.4286C-0.000488281 22.8487 1.15078 24 2.57094 24H21.4281C22.8482 24 23.9995 22.8487 23.9995 21.4286V5.14285C23.9995 3.72269 22.8482 2.57143 21.4281 2.57143ZM22.2852 21.4286C22.2852 21.902 21.9014 22.2857 21.428 22.2857H2.57094C2.09753 22.2857 1.71378 21.902 1.71378 21.4286V10.2857H22.2852V21.4286ZM22.2852 8.57144H1.71378V5.14285C1.71378 4.66945 2.09753 4.28569 2.57094 4.28569H5.14237V5.99996C5.14237 6.47337 5.52612 6.85712 5.99952 6.85712C6.47293 6.85712 6.85668 6.47337 6.85668 5.99996V4.28569H17.1424V5.99996C17.1424 6.47337 17.5261 6.85712 17.9995 6.85712C18.473 6.85712 18.8567 6.47337 18.8567 5.99996V4.28569H21.4281C21.9015 4.28569 22.2853 4.66945 22.2853 5.14285V8.57144H22.2852Z" fill="#272621"/>
<path d="M6.85659 12H5.14232C4.66891 12 4.28516 12.3838 4.28516 12.8572C4.28516 13.3306 4.66891 13.7143 5.14232 13.7143H6.85659C7.32999 13.7143 7.71375 13.3306 7.71375 12.8572C7.71375 12.3838 7.32999 12 6.85659 12Z" fill="#272621"/>
<path d="M12.8566 12H11.1423C10.6689 12 10.2852 12.3838 10.2852 12.8572C10.2852 13.3306 10.6689 13.7143 11.1423 13.7143H12.8566C13.33 13.7143 13.7138 13.3306 13.7138 12.8572C13.7138 12.3838 13.33 12 12.8566 12Z" fill="#272621"/>
<path d="M18.8566 12H17.1423C16.6689 12 16.2852 12.3838 16.2852 12.8572C16.2852 13.3306 16.6689 13.7143 17.1423 13.7143H18.8566C19.33 13.7143 19.7137 13.3306 19.7137 12.8572C19.7137 12.3838 19.3299 12 18.8566 12Z" fill="#272621"/>
<path d="M6.85659 15.4286H5.14232C4.66891 15.4286 4.28516 15.8123 4.28516 16.2857C4.28516 16.7592 4.66891 17.1429 5.14232 17.1429H6.85659C7.32999 17.1429 7.71375 16.7592 7.71375 16.2857C7.71375 15.8123 7.32999 15.4286 6.85659 15.4286Z" fill="#272621"/>
<path d="M12.8566 15.4286H11.1423C10.6689 15.4286 10.2852 15.8123 10.2852 16.2857C10.2852 16.7592 10.6689 17.1429 11.1423 17.1429H12.8566C13.33 17.1429 13.7138 16.7592 13.7138 16.2857C13.7138 15.8123 13.33 15.4286 12.8566 15.4286Z" fill="#272621"/>
<path d="M18.8566 15.4286H17.1423C16.6689 15.4286 16.2852 15.8123 16.2852 16.2857C16.2852 16.7592 16.6689 17.1429 17.1423 17.1429H18.8566C19.33 17.1429 19.7137 16.7592 19.7137 16.2857C19.7137 15.8123 19.3299 15.4286 18.8566 15.4286Z" fill="#272621"/>
<path d="M6.85659 18.8571H5.14232C4.66891 18.8571 4.28516 19.2409 4.28516 19.7143C4.28516 20.1877 4.66891 20.5714 5.14232 20.5714H6.85659C7.32999 20.5714 7.71375 20.1876 7.71375 19.7142C7.71375 19.2408 7.32999 18.8571 6.85659 18.8571Z" fill="#272621"/>
<path d="M12.8566 18.8571H11.1423C10.6689 18.8571 10.2852 19.2409 10.2852 19.7143C10.2852 20.1877 10.6689 20.5714 11.1423 20.5714H12.8566C13.33 20.5714 13.7138 20.1877 13.7138 19.7143C13.7138 19.2409 13.33 18.8571 12.8566 18.8571Z" fill="#272621"/>
<path d="M18.8566 18.8571H17.1423C16.6689 18.8571 16.2852 19.2409 16.2852 19.7143C16.2852 20.1877 16.6689 20.5714 17.1423 20.5714H18.8566C19.33 20.5714 19.7137 20.1877 19.7137 19.7143C19.7137 19.2409 19.3299 18.8571 18.8566 18.8571Z" fill="#272621"/>
</g>
<defs>
<clipPath id="clip0">
<rect width="24" height="24" fill="white" transform="translate(-0.000488281)"/>
</clipPath>
</defs>
</svg>
