<svg width="54" height="54" viewBox="0 0 54 54" fill="none" xmlns="http://www.w3.org/2000/svg">
<g clip-path="url(#clip0)">
<g opacity="0.8">
<path d="M33.0638 37.1412L33.0638 37.1412C32.9923 37.0067 32.8857 36.8943 32.7552 36.8159C32.6248 36.7375 32.4754 36.6961 32.3232 36.6961C32.3232 36.6961 32.3232 36.6961 32.3232 36.6961L21.6769 36.6961H21.6768V36.7961L33.0638 37.1412ZM33.0638 37.1412L35.4166 41.5709L35.4166 41.5709M33.0638 37.1412L35.4166 41.5709M35.4166 41.5709C35.4843 41.6987 35.5178 41.8418 35.5139 41.9864C35.51 42.1309 35.4688 42.272 35.3943 42.3959C35.3198 42.5198 35.2145 42.6224 35.0887 42.6936C34.9628 42.7648 34.8207 42.8023 34.6761 42.8024H34.676M35.4166 41.5709L34.676 42.8024M34.676 42.8024H19.3219H19.3218M34.676 42.8024H19.3218M19.3218 42.8024C19.1772 42.8023 19.0351 42.7648 18.9092 42.6936C18.7834 42.6224 18.6781 42.5198 18.6036 42.3959C18.5291 42.272 18.4879 42.1309 18.484 41.9863C18.4801 41.8418 18.5136 41.6987 18.5813 41.5709L18.5813 41.5709M19.3218 42.8024L18.5813 41.5709M18.5813 41.5709L20.9341 37.1412L21.0225 37.1881L18.5813 41.5709ZM22.1807 38.3727L20.7184 41.1258H33.2808L31.8184 38.3727H22.1807Z" fill="#272621" stroke="#272621" stroke-width="0.2"/>
<path d="M31.0332 19.3884L28.7743 19.1425L28.7737 19.1425L31.0332 19.3884ZM31.0332 19.3884L29.6906 17.5549L29.6906 17.5548C29.5856 17.411 29.529 17.2376 29.529 17.0596C29.529 16.8816 29.5856 16.7081 29.6906 16.5644L29.6906 16.5643L31.0331 14.7316L28.7748 14.977C28.7747 14.977 28.7746 14.977 28.7745 14.977C28.5973 14.9973 28.4183 14.96 28.2638 14.8708C28.1094 14.7816 27.9877 14.6451 27.9167 14.4815C27.9166 14.4814 27.9166 14.4813 27.9166 14.4812L27 12.4031L26.0835 14.4812C26.0835 14.4813 26.0834 14.4814 26.0834 14.4815C26.0124 14.6451 25.8907 14.7817 25.7362 14.8709C25.5818 14.9601 25.4027 14.9973 25.2255 14.977C25.2254 14.977 25.2253 14.977 25.2252 14.977L22.967 14.7316L24.309 16.5626L24.3091 16.5627C24.4141 16.7065 24.4707 16.8799 24.4707 17.0579C24.4707 17.2359 24.4141 17.4093 24.3091 17.5531L24.309 17.5532L22.9663 19.3869L25.2258 19.1425C25.4029 19.1234 25.5814 19.1611 25.7356 19.2502C25.8897 19.3394 26.0115 19.4753 26.0832 19.6382L31.0332 19.3884ZM20.4414 13.2736L20.4414 13.2735C20.5226 13.133 20.6427 13.0191 20.7872 12.9456C20.9317 12.872 21.0945 12.842 21.2558 12.8591L21.256 12.8591L24.795 13.244L26.2335 9.98696L26.2336 9.98685C26.2993 9.83845 26.4068 9.71232 26.5428 9.62379C26.6789 9.53526 26.8377 9.48813 27 9.48813C27.1623 9.48813 27.3212 9.53526 27.4572 9.62379C27.5933 9.71232 27.7007 9.83845 27.7664 9.98685L27.7665 9.98701L29.203 13.244L32.7419 12.8591L32.7421 12.8591C32.9036 12.8418 33.0667 12.8719 33.2115 12.9455C33.3563 13.0192 33.4766 13.1333 33.5577 13.274C33.6389 13.4147 33.6774 13.576 33.6687 13.7382C33.6599 13.9005 33.6043 14.0566 33.5084 14.1878L33.5084 14.1879L31.4056 17.06L33.5084 19.9326L33.5084 19.9326C33.6043 20.0639 33.6599 20.2202 33.6684 20.3826C33.6769 20.5448 33.6381 20.7059 33.5566 20.8464C33.4763 20.9876 33.3562 21.1022 33.2114 21.1758L33.1661 21.0866L33.2114 21.1758C33.0665 21.2494 32.9031 21.2789 32.7416 21.2604C32.7415 21.2604 32.7414 21.2604 32.7413 21.2604L29.203 20.8756L27.7665 24.133L27.7664 24.1332C27.7007 24.2816 27.5933 24.4077 27.4572 24.4962C27.3212 24.5848 27.1623 24.6319 27 24.6319C26.8377 24.6319 26.6789 24.5848 26.5428 24.4962C26.4068 24.4077 26.2993 24.2816 26.2336 24.1332L26.2335 24.133L24.797 20.8756L21.2588 21.2604C21.2587 21.2604 21.2586 21.2604 21.2584 21.2604C21.0969 21.279 20.9335 21.2497 20.7885 21.176C20.6436 21.1023 20.5236 20.9877 20.4434 20.8463C20.362 20.7058 20.3233 20.5447 20.3318 20.3826C20.3403 20.2203 20.3958 20.064 20.4915 19.9327L20.4916 19.9326L22.5945 17.06L20.4917 14.1879C20.3956 14.0568 20.3396 13.9006 20.3307 13.7382C20.3218 13.5759 20.3602 13.4144 20.4414 13.2736ZM26.0833 19.6383L27 21.7169L27.9168 19.6383C27.9168 19.6383 27.9168 19.6383 27.9168 19.6382C27.9823 19.4895 28.0896 19.3631 28.2257 19.2743C28.3617 19.1856 28.5205 19.1383 28.6829 19.1382C28.6828 19.1382 28.6826 19.1382 28.6825 19.1382L26.0833 19.6383Z" fill="#272621" stroke="#272621" stroke-width="0.2"/>
<mask id="path-3-outside-1" maskUnits="userSpaceOnUse" x="-0.999969" y="2.07031" width="56" height="50" fill="black">
<rect fill="white" x="-0.999969" y="2.07031" width="56" height="50"/>
<path d="M6.64581 6.21117H13.2494V3.80859C13.2494 3.61279 13.3272 3.425 13.4657 3.28655C13.6041 3.1481 13.7919 3.07031 13.9877 3.07031H40.0123C40.2081 3.07031 40.3959 3.1481 40.5344 3.28655C40.6728 3.425 40.7506 3.61279 40.7506 3.80859V6.21328H47.3542C49.1157 6.21496 50.8046 6.91521 52.0505 8.16045C53.2963 9.40568 53.9974 11.0942 54 12.8557V18.2279C54.0037 19.7232 53.5012 21.1758 52.5743 22.3493C51.6475 23.5228 50.3508 24.3481 48.8953 24.691L38.8547 27.086C37.8907 28.5696 36.603 29.8154 35.0882 30.7297V33.9752L40.7329 44.6026H42.3727C42.7882 44.6026 43.1997 44.6845 43.5835 44.8435C43.9674 45.0025 44.3162 45.2356 44.61 45.5294C44.9039 45.8232 45.1369 46.172 45.2959 46.5559C45.4549 46.9398 45.5368 47.3512 45.5368 47.7667C45.5368 48.1822 45.4549 48.5937 45.2959 48.9775C45.1369 49.3614 44.9039 49.7102 44.61 50.004C44.3162 50.2978 43.9674 50.5309 43.5835 50.6899C43.1997 50.8489 42.7882 50.9308 42.3727 50.9308H11.6273C10.7881 50.9308 9.98336 50.5974 9.38998 50.004C8.7966 49.4107 8.46325 48.6059 8.46325 47.7667C8.46325 46.9275 8.7966 46.1228 9.38998 45.5294C9.98336 44.936 10.7881 44.6026 11.6273 44.6026H13.2671L18.9093 33.9752V30.7297C17.3942 29.815 16.1062 28.5686 15.1424 27.0843L5.1047 24.691C3.64918 24.3481 2.35252 23.5228 1.42568 22.3493C0.49884 21.1758 -0.00363159 19.7232 1.52588e-05 18.2279V12.8557C0.0020256 11.0939 0.702892 9.40478 1.94882 8.15908C3.19475 6.91339 4.88397 6.21285 6.64581 6.21117ZM13.2494 11.0627H6.64581C6.17046 11.0633 5.71473 11.2524 5.37861 11.5885C5.04248 11.9246 4.8534 12.3804 4.85284 12.8557V18.2279C4.85185 18.6314 4.98737 19.0233 5.23737 19.34C5.48737 19.6567 5.83715 19.8796 6.22984 19.9723L13.2891 21.6564C13.2642 21.3468 13.2469 21.0354 13.2469 20.7216L13.2494 11.0627ZM40.7109 21.6569L47.7702 19.9723C48.1631 19.8798 48.5132 19.6571 48.7634 19.3404C49.0137 19.0236 49.1494 18.6315 49.1484 18.2279V12.8557C49.1479 12.3804 48.9588 11.9246 48.6227 11.5885C48.2866 11.2524 47.8308 11.0633 47.3555 11.0627H40.7506V20.7237C40.7506 21.0354 40.7342 21.3468 40.7109 21.6569ZM48.5536 23.2549C49.6857 22.9882 50.6941 22.3463 51.4149 21.4335C52.1357 20.5207 52.5264 19.3909 52.5234 18.2279V12.8557C52.522 11.4855 51.977 10.1719 51.0082 9.203C50.0393 8.23413 48.7257 7.68919 47.3555 7.68773H40.7506V9.58617H47.3542C48.2213 9.58684 49.0526 9.93148 49.6658 10.5445C50.279 11.1574 50.624 11.9887 50.625 12.8557V18.2279C50.6269 18.9636 50.3798 19.6784 49.9239 20.2558C49.468 20.8333 48.8301 21.2395 48.114 21.4084L40.4747 23.2309C40.3159 23.9554 40.0885 24.6631 39.7955 25.3445L48.5536 23.2549ZM20.3859 33.4221H33.6142V31.0499H20.3859V33.4221ZM9.94065 47.7659C9.94065 48.2134 10.1184 48.6426 10.4349 48.9591C10.7514 49.2756 11.1806 49.4534 11.6282 49.4534H42.3727C42.8203 49.4534 43.2495 49.2756 43.566 48.9591C43.8824 48.6426 44.0602 48.2134 44.0602 47.7659C44.0602 47.3183 43.8824 46.8891 43.566 46.5726C43.2495 46.2561 42.8203 46.0784 42.3727 46.0784H11.6273C11.1799 46.0786 10.7509 46.2565 10.4346 46.5729C10.1183 46.8894 9.94065 47.3185 9.94065 47.7659ZM39.061 44.6018L33.9086 34.8987H20.0914L14.939 44.6018H39.061ZM19.8416 29.5733H34.1584C35.7126 28.6763 37.0035 27.3861 37.9014 25.8324C38.7993 24.2787 39.2727 22.5161 39.274 20.7216V4.54688H14.726V20.7216C14.7273 22.5161 15.2007 24.2787 16.0986 25.8324C16.9966 27.3861 18.2874 28.6763 19.8416 29.5733ZM1.47658 18.2279C1.47355 19.3908 1.86412 20.5205 2.58475 21.4333C3.30539 22.346 4.31367 22.9881 5.44558 23.2549L14.2058 25.3445C13.9128 24.6631 13.6854 23.9554 13.5266 23.2309L5.88728 21.4084C5.17094 21.2398 4.53275 20.8337 4.07659 20.2562C3.62043 19.6787 3.37316 18.9638 3.37502 18.2279V12.8557C3.37602 11.9889 3.72081 11.1578 4.33375 10.5449C4.94669 9.93197 5.77772 9.58718 6.64455 9.58617H13.2494V7.68773H6.64581C5.27566 7.6893 3.96207 8.23428 2.99323 9.20312C2.02439 10.172 1.4794 11.4856 1.47784 12.8557L1.47658 18.2279Z"/>
</mask>
<path d="M6.64581 6.21117H13.2494V3.80859C13.2494 3.61279 13.3272 3.425 13.4657 3.28655C13.6041 3.1481 13.7919 3.07031 13.9877 3.07031H40.0123C40.2081 3.07031 40.3959 3.1481 40.5344 3.28655C40.6728 3.425 40.7506 3.61279 40.7506 3.80859V6.21328H47.3542C49.1157 6.21496 50.8046 6.91521 52.0505 8.16045C53.2963 9.40568 53.9974 11.0942 54 12.8557V18.2279C54.0037 19.7232 53.5012 21.1758 52.5743 22.3493C51.6475 23.5228 50.3508 24.3481 48.8953 24.691L38.8547 27.086C37.8907 28.5696 36.603 29.8154 35.0882 30.7297V33.9752L40.7329 44.6026H42.3727C42.7882 44.6026 43.1997 44.6845 43.5835 44.8435C43.9674 45.0025 44.3162 45.2356 44.61 45.5294C44.9039 45.8232 45.1369 46.172 45.2959 46.5559C45.4549 46.9398 45.5368 47.3512 45.5368 47.7667C45.5368 48.1822 45.4549 48.5937 45.2959 48.9775C45.1369 49.3614 44.9039 49.7102 44.61 50.004C44.3162 50.2978 43.9674 50.5309 43.5835 50.6899C43.1997 50.8489 42.7882 50.9308 42.3727 50.9308H11.6273C10.7881 50.9308 9.98336 50.5974 9.38998 50.004C8.7966 49.4107 8.46325 48.6059 8.46325 47.7667C8.46325 46.9275 8.7966 46.1228 9.38998 45.5294C9.98336 44.936 10.7881 44.6026 11.6273 44.6026H13.2671L18.9093 33.9752V30.7297C17.3942 29.815 16.1062 28.5686 15.1424 27.0843L5.1047 24.691C3.64918 24.3481 2.35252 23.5228 1.42568 22.3493C0.49884 21.1758 -0.00363159 19.7232 1.52588e-05 18.2279V12.8557C0.0020256 11.0939 0.702892 9.40478 1.94882 8.15908C3.19475 6.91339 4.88397 6.21285 6.64581 6.21117ZM13.2494 11.0627H6.64581C6.17046 11.0633 5.71473 11.2524 5.37861 11.5885C5.04248 11.9246 4.8534 12.3804 4.85284 12.8557V18.2279C4.85185 18.6314 4.98737 19.0233 5.23737 19.34C5.48737 19.6567 5.83715 19.8796 6.22984 19.9723L13.2891 21.6564C13.2642 21.3468 13.2469 21.0354 13.2469 20.7216L13.2494 11.0627ZM40.7109 21.6569L47.7702 19.9723C48.1631 19.8798 48.5132 19.6571 48.7634 19.3404C49.0137 19.0236 49.1494 18.6315 49.1484 18.2279V12.8557C49.1479 12.3804 48.9588 11.9246 48.6227 11.5885C48.2866 11.2524 47.8308 11.0633 47.3555 11.0627H40.7506V20.7237C40.7506 21.0354 40.7342 21.3468 40.7109 21.6569ZM48.5536 23.2549C49.6857 22.9882 50.6941 22.3463 51.4149 21.4335C52.1357 20.5207 52.5264 19.3909 52.5234 18.2279V12.8557C52.522 11.4855 51.977 10.1719 51.0082 9.203C50.0393 8.23413 48.7257 7.68919 47.3555 7.68773H40.7506V9.58617H47.3542C48.2213 9.58684 49.0526 9.93148 49.6658 10.5445C50.279 11.1574 50.624 11.9887 50.625 12.8557V18.2279C50.6269 18.9636 50.3798 19.6784 49.9239 20.2558C49.468 20.8333 48.8301 21.2395 48.114 21.4084L40.4747 23.2309C40.3159 23.9554 40.0885 24.6631 39.7955 25.3445L48.5536 23.2549ZM20.3859 33.4221H33.6142V31.0499H20.3859V33.4221ZM9.94065 47.7659C9.94065 48.2134 10.1184 48.6426 10.4349 48.9591C10.7514 49.2756 11.1806 49.4534 11.6282 49.4534H42.3727C42.8203 49.4534 43.2495 49.2756 43.566 48.9591C43.8824 48.6426 44.0602 48.2134 44.0602 47.7659C44.0602 47.3183 43.8824 46.8891 43.566 46.5726C43.2495 46.2561 42.8203 46.0784 42.3727 46.0784H11.6273C11.1799 46.0786 10.7509 46.2565 10.4346 46.5729C10.1183 46.8894 9.94065 47.3185 9.94065 47.7659ZM39.061 44.6018L33.9086 34.8987H20.0914L14.939 44.6018H39.061ZM19.8416 29.5733H34.1584C35.7126 28.6763 37.0035 27.3861 37.9014 25.8324C38.7993 24.2787 39.2727 22.5161 39.274 20.7216V4.54688H14.726V20.7216C14.7273 22.5161 15.2007 24.2787 16.0986 25.8324C16.9966 27.3861 18.2874 28.6763 19.8416 29.5733ZM1.47658 18.2279C1.47355 19.3908 1.86412 20.5205 2.58475 21.4333C3.30539 22.346 4.31367 22.9881 5.44558 23.2549L14.2058 25.3445C13.9128 24.6631 13.6854 23.9554 13.5266 23.2309L5.88728 21.4084C5.17094 21.2398 4.53275 20.8337 4.07659 20.2562C3.62043 19.6787 3.37316 18.9638 3.37502 18.2279V12.8557C3.37602 11.9889 3.72081 11.1578 4.33375 10.5449C4.94669 9.93197 5.77772 9.58718 6.64455 9.58617H13.2494V7.68773H6.64581C5.27566 7.6893 3.96207 8.23428 2.99323 9.20312C2.02439 10.172 1.4794 11.4856 1.47784 12.8557L1.47658 18.2279Z" fill="#272621"/>
<path d="M6.64581 6.21117H13.2494V3.80859C13.2494 3.61279 13.3272 3.425 13.4657 3.28655C13.6041 3.1481 13.7919 3.07031 13.9877 3.07031H40.0123C40.2081 3.07031 40.3959 3.1481 40.5344 3.28655C40.6728 3.425 40.7506 3.61279 40.7506 3.80859V6.21328H47.3542C49.1157 6.21496 50.8046 6.91521 52.0505 8.16045C53.2963 9.40568 53.9974 11.0942 54 12.8557V18.2279C54.0037 19.7232 53.5012 21.1758 52.5743 22.3493C51.6475 23.5228 50.3508 24.3481 48.8953 24.691L38.8547 27.086C37.8907 28.5696 36.603 29.8154 35.0882 30.7297V33.9752L40.7329 44.6026H42.3727C42.7882 44.6026 43.1997 44.6845 43.5835 44.8435C43.9674 45.0025 44.3162 45.2356 44.61 45.5294C44.9039 45.8232 45.1369 46.172 45.2959 46.5559C45.4549 46.9398 45.5368 47.3512 45.5368 47.7667C45.5368 48.1822 45.4549 48.5937 45.2959 48.9775C45.1369 49.3614 44.9039 49.7102 44.61 50.004C44.3162 50.2978 43.9674 50.5309 43.5835 50.6899C43.1997 50.8489 42.7882 50.9308 42.3727 50.9308H11.6273C10.7881 50.9308 9.98336 50.5974 9.38998 50.004C8.7966 49.4107 8.46325 48.6059 8.46325 47.7667C8.46325 46.9275 8.7966 46.1228 9.38998 45.5294C9.98336 44.936 10.7881 44.6026 11.6273 44.6026H13.2671L18.9093 33.9752V30.7297C17.3942 29.815 16.1062 28.5686 15.1424 27.0843L5.1047 24.691C3.64918 24.3481 2.35252 23.5228 1.42568 22.3493C0.49884 21.1758 -0.00363159 19.7232 1.52588e-05 18.2279V12.8557C0.0020256 11.0939 0.702892 9.40478 1.94882 8.15908C3.19475 6.91339 4.88397 6.21285 6.64581 6.21117ZM13.2494 11.0627H6.64581C6.17046 11.0633 5.71473 11.2524 5.37861 11.5885C5.04248 11.9246 4.8534 12.3804 4.85284 12.8557V18.2279C4.85185 18.6314 4.98737 19.0233 5.23737 19.34C5.48737 19.6567 5.83715 19.8796 6.22984 19.9723L13.2891 21.6564C13.2642 21.3468 13.2469 21.0354 13.2469 20.7216L13.2494 11.0627ZM40.7109 21.6569L47.7702 19.9723C48.1631 19.8798 48.5132 19.6571 48.7634 19.3404C49.0137 19.0236 49.1494 18.6315 49.1484 18.2279V12.8557C49.1479 12.3804 48.9588 11.9246 48.6227 11.5885C48.2866 11.2524 47.8308 11.0633 47.3555 11.0627H40.7506V20.7237C40.7506 21.0354 40.7342 21.3468 40.7109 21.6569ZM48.5536 23.2549C49.6857 22.9882 50.6941 22.3463 51.4149 21.4335C52.1357 20.5207 52.5264 19.3909 52.5234 18.2279V12.8557C52.522 11.4855 51.977 10.1719 51.0082 9.203C50.0393 8.23413 48.7257 7.68919 47.3555 7.68773H40.7506V9.58617H47.3542C48.2213 9.58684 49.0526 9.93148 49.6658 10.5445C50.279 11.1574 50.624 11.9887 50.625 12.8557V18.2279C50.6269 18.9636 50.3798 19.6784 49.9239 20.2558C49.468 20.8333 48.8301 21.2395 48.114 21.4084L40.4747 23.2309C40.3159 23.9554 40.0885 24.6631 39.7955 25.3445L48.5536 23.2549ZM20.3859 33.4221H33.6142V31.0499H20.3859V33.4221ZM9.94065 47.7659C9.94065 48.2134 10.1184 48.6426 10.4349 48.9591C10.7514 49.2756 11.1806 49.4534 11.6282 49.4534H42.3727C42.8203 49.4534 43.2495 49.2756 43.566 48.9591C43.8824 48.6426 44.0602 48.2134 44.0602 47.7659C44.0602 47.3183 43.8824 46.8891 43.566 46.5726C43.2495 46.2561 42.8203 46.0784 42.3727 46.0784H11.6273C11.1799 46.0786 10.7509 46.2565 10.4346 46.5729C10.1183 46.8894 9.94065 47.3185 9.94065 47.7659ZM39.061 44.6018L33.9086 34.8987H20.0914L14.939 44.6018H39.061ZM19.8416 29.5733H34.1584C35.7126 28.6763 37.0035 27.3861 37.9014 25.8324C38.7993 24.2787 39.2727 22.5161 39.274 20.7216V4.54688H14.726V20.7216C14.7273 22.5161 15.2007 24.2787 16.0986 25.8324C16.9966 27.3861 18.2874 28.6763 19.8416 29.5733ZM1.47658 18.2279C1.47355 19.3908 1.86412 20.5205 2.58475 21.4333C3.30539 22.346 4.31367 22.9881 5.44558 23.2549L14.2058 25.3445C13.9128 24.6631 13.6854 23.9554 13.5266 23.2309L5.88728 21.4084C5.17094 21.2398 4.53275 20.8337 4.07659 20.2562C3.62043 19.6787 3.37316 18.9638 3.37502 18.2279V12.8557C3.37602 11.9889 3.72081 11.1578 4.33375 10.5449C4.94669 9.93197 5.77772 9.58718 6.64455 9.58617H13.2494V7.68773H6.64581C5.27566 7.6893 3.96207 8.23428 2.99323 9.20312C2.02439 10.172 1.4794 11.4856 1.47784 12.8557L1.47658 18.2279Z" stroke="#272621" stroke-width="0.4" mask="url(#path-3-outside-1)"/>
</g>
</g>
<defs>
<clipPath id="clip0">
<rect width="54" height="54" fill="white" transform="matrix(-1 0 0 1 54 0)"/>
</clipPath>
</defs>
</svg>
