<svg width="48" height="48" viewBox="0 0 48 48" fill="none" xmlns="http://www.w3.org/2000/svg">
<g opacity="0.8">
<path d="M27.6607 21.8342C27.3511 21.4192 26.7637 21.3338 26.3487 21.6435C25.6757 22.1457 24.8746 22.4112 24.032 22.4112C23.1972 22.4112 22.4017 22.1497 21.7316 21.655C21.3151 21.3475 20.7281 21.4358 20.4206 21.8524C20.1131 22.2689 20.2015 22.8559 20.618 23.1634C21.613 23.8978 22.7935 24.2861 24.032 24.2861C25.2817 24.2861 26.4706 23.8919 27.47 23.1463C27.885 22.8366 27.9704 22.2492 27.6607 21.8342Z" fill="#272621"/>
<path d="M44.9944 46.9609L44.4242 41.7313C44.0393 38.2005 41.4404 35.3619 37.9571 34.6679C37.9571 34.6679 37.3996 34.5474 37.3251 34.542L30.9827 33.2782C29.9359 33.0697 29.1763 32.1438 29.1763 31.0765V29.5497L33.1022 27.2986C33.1193 27.2888 33.1361 27.2784 33.1526 27.2676C34.6647 26.269 35.6581 24.4883 35.8097 22.5044C35.8116 22.4807 35.8125 22.4568 35.8125 22.433V22.3972H36.0897C37.4416 22.3972 38.5414 21.2973 38.5414 19.9454V17.5161C38.5414 16.8431 38.2688 16.2327 37.8283 15.7893C38.2098 15.2935 38.4375 14.6735 38.4375 14.0009V3.30469V2.4375V0.9375C38.4375 0.419719 38.0177 0 37.5 0H14.4206C12.1164 0 10.2418 1.87463 10.2418 4.17881V15.0419C10.2418 15.2415 10.3046 15.4262 10.4109 15.5782C9.83209 16.027 9.4585 16.7286 9.4585 17.516V19.9453C9.4585 21.2972 10.5584 22.3971 11.9102 22.3971H12.1875V22.4329C12.1875 22.4567 12.1884 22.4806 12.1902 22.5043C12.3425 24.4967 13.3286 26.2774 14.8278 27.2675C14.8446 27.2785 14.8618 27.289 14.8792 27.2991L18.8262 29.5554V31.0764C18.8262 32.1437 18.0665 33.0696 17.0198 33.2782L10.6789 34.5415C10.6017 34.5469 10.044 34.6681 10.044 34.6681C6.56163 35.3618 3.96278 38.1997 3.57709 41.7295L3.0055 46.9606C2.97653 47.2254 3.06166 47.49 3.2395 47.6883C3.41734 47.8867 3.67112 48 3.93747 48H44.0625C44.3288 48 44.5826 47.8867 44.7603 47.6885C44.9382 47.4902 45.0233 47.2256 44.9944 46.9609ZM36.6664 19.9454C36.6664 20.2635 36.4077 20.5222 36.0897 20.5222H35.8125V16.9392H36.0897C36.4078 16.9392 36.6664 17.198 36.6664 17.516V19.9454ZM35.8125 15.0171V9.02925C36.0794 8.79834 36.33 8.54934 36.5625 8.28375V14.0009C36.5625 14.4782 36.2463 14.883 35.8125 15.0171ZM12.1875 20.5223H11.9103V20.5222C11.5922 20.5222 11.3336 20.2634 11.3336 19.9454V17.5161C11.3336 17.198 11.5923 16.9393 11.9103 16.9393H12.1875V20.5223ZM12.6776 14.1044H12.1169V4.17881H12.1168C12.1168 2.9085 13.1503 1.875 14.4206 1.875H36.5625V2.4375V3.30469C36.5625 6.44513 34.0076 9 30.8672 9H16.5087C15.9909 9 15.5712 9.41972 15.5712 9.9375V11.2108C15.5712 12.8063 14.2731 14.1044 12.6776 14.1044ZM15.8376 25.6873C14.8395 25.016 14.1782 23.7898 14.0625 22.3958V15.7736C16.0185 15.1788 17.4462 13.3586 17.4462 11.2108V10.875H30.8672C31.9599 10.875 32.9984 10.6404 33.9375 10.2219V22.3958C33.8222 23.7817 33.1535 25.0082 32.1424 25.6876L25.6463 29.4125C25.6292 29.4222 25.6125 29.4325 25.596 29.4435C24.5967 30.1034 23.4034 30.1034 22.4042 29.4435C22.3874 29.4323 22.3703 29.4218 22.3528 29.4119L15.8376 25.6873ZM27.2968 32.3364V34.938L25.5629 33.5557L27.2968 32.3364ZM24.9143 31.7196L24 32.3625L23.0856 31.7196C23.388 31.7803 23.694 31.8113 24.0001 31.8113C24.3061 31.8113 24.6121 31.7802 24.9143 31.7196ZM22.4371 33.5556L20.7032 34.9379V32.3364L22.4371 33.5556ZM7.65616 46.125H4.98297L5.44103 41.9333C5.62206 40.2761 6.43862 38.8184 7.65616 37.8128V46.125ZM9.53125 46.125V36.9001C9.53125 36.8505 9.52628 36.8022 9.51888 36.7547C9.74697 36.6731 9.98153 36.604 10.2221 36.5484L11.549 39.2799L10.2855 41.0797C10.0282 41.446 10.0659 41.9431 10.3754 42.2665L14.068 46.125H9.53125ZM31.7371 38.7758C31.2193 38.7758 30.7996 39.1956 30.7996 39.7133V46.125H17.2004V39.7133C17.2004 39.1956 16.7807 38.7758 16.2629 38.7758C15.7451 38.7758 15.3254 39.1956 15.3254 39.7133V44.727L12.2626 41.5267L13.4008 39.9056C13.5965 39.6268 13.6256 39.2637 13.4768 38.9573L12.121 36.1662L17.3863 35.1172C17.9125 35.0123 18.3988 34.8081 18.8282 34.5274V36.8844C18.8282 37.2445 19.0344 37.5728 19.3589 37.729C19.4882 37.7914 19.6273 37.8219 19.7656 37.8219C19.9741 37.8219 20.1809 37.7525 20.3501 37.6175L24 34.7076L27.6498 37.6175C27.8192 37.7524 28.0259 37.8219 28.2344 37.8219C28.3727 37.8219 28.5117 37.7914 28.6411 37.729C28.9654 37.5728 29.1718 37.2445 29.1718 36.8844V34.5257C29.6017 34.8073 30.0889 35.0121 30.6163 35.1172L35.8792 36.1657L34.5231 38.9573C34.3743 39.2637 34.4034 39.6268 34.5992 39.9056L35.7374 41.5267L32.6746 44.727V39.7133C32.6746 39.1956 32.2548 38.7758 31.7371 38.7758ZM38.4688 36.9002V46.125H33.932L37.6247 42.2666C37.9341 41.9432 37.9719 41.4461 37.7146 41.0798L36.451 39.28L37.7781 36.5481C38.0186 36.6036 38.2532 36.6726 38.4812 36.7541C38.4737 36.8018 38.4688 36.8504 38.4688 36.9002ZM40.3438 46.125V37.8113C41.5624 38.8174 42.3797 40.2761 42.5604 41.9346L43.0172 46.125H40.3438Z" fill="#272621"/>
<path d="M16.2629 35.9468C15.7451 35.9468 15.3254 36.3665 15.3254 36.8843V36.8999C15.3254 37.4177 15.7451 37.8374 16.2629 37.8374C16.7807 37.8374 17.2004 37.4177 17.2004 36.8999V36.8843C17.2004 36.3665 16.7807 35.9468 16.2629 35.9468Z" fill="#272621"/>
<path d="M31.7371 35.9468C31.2193 35.9468 30.7996 36.3665 30.7996 36.8843V36.8999C30.7996 37.4177 31.2193 37.8374 31.7371 37.8374C32.2549 37.8374 32.6746 37.4177 32.6746 36.8999V36.8843C32.6746 36.3665 32.2549 35.9468 31.7371 35.9468Z" fill="#272621"/>
</g>
</svg>
