<svg width="44" height="55" viewBox="0 0 44 55" fill="none" xmlns="http://www.w3.org/2000/svg">
<path opacity="0.8" d="M3.73838 22.6L3.39278 20.6301L1.73838 20.9203V22.6H3.73838ZM3.73838 28H1.73838V30H3.73838V28ZM15.4024 28V30H17.4024V28H15.4024ZM15.4024 22.6H17.4024V20.9203L15.748 20.6301L15.4024 22.6ZM13.3504 22.24H11.3504V23.9197L13.0048 24.2099L13.3504 22.24ZM13.3504 2.8H15.3504V0.799998H13.3504V2.8ZM8.67038 2.8V0.799998H8.17619L7.73888 1.03016L8.67038 2.8ZM2.51438 6.04L1.58288 4.27016L0.514376 4.83254V6.04H2.51438ZM2.51438 10H0.514376V12H2.51438V10ZM5.79038 10H7.79038V8H5.79038V10ZM5.79038 22.24L6.13597 24.2099L7.79038 23.9197V22.24H5.79038ZM1.73838 22.6V28H5.73838V22.6H1.73838ZM3.73838 30H15.4024V26H3.73838V30ZM17.4024 28V22.6H13.4024V28H17.4024ZM15.748 20.6301L13.696 20.2701L13.0048 24.2099L15.0568 24.5699L15.748 20.6301ZM15.3504 22.24V2.8H11.3504V22.24H15.3504ZM13.3504 0.799998H8.67038V4.8H13.3504V0.799998ZM7.73888 1.03016L1.58288 4.27016L3.44587 7.80984L9.60187 4.56983L7.73888 1.03016ZM0.514376 6.04V10H4.51438V6.04H0.514376ZM2.51438 12H5.79038V8H2.51438V12ZM3.79038 10V22.24H7.79038V10H3.79038ZM5.44478 20.2701L3.39278 20.6301L4.08398 24.5699L6.13597 24.2099L5.44478 20.2701ZM30.8897 20.06C30.7145 20.06 30.6845 20.0435 30.7353 20.0573C30.8056 20.0765 30.9927 20.1446 31.1789 20.3308C31.3651 20.517 31.4332 20.7041 31.4523 20.7744C31.4662 20.8252 31.4497 20.7952 31.4497 20.62H27.4497C27.4497 21.2708 27.5324 22.3411 28.3505 23.1592C29.1686 23.9773 30.2389 24.06 30.8897 24.06V20.06ZM31.4497 20.62V10.18H27.4497V20.62H31.4497ZM31.4497 10.18C31.4497 10.0048 31.4662 9.97481 31.4523 10.0256C31.4332 10.0959 31.3651 10.283 31.1789 10.4692C30.9927 10.6554 30.8056 10.7235 30.7353 10.7427C30.6845 10.7565 30.7145 10.74 30.8897 10.74V6.74C30.2389 6.74 29.1686 6.82266 28.3505 7.64079C27.5324 8.45891 27.4497 9.5292 27.4497 10.18H31.4497ZM30.8897 10.74H32.4017V6.74H30.8897V10.74ZM32.4017 10.74C32.5769 10.74 32.6069 10.7565 32.5561 10.7427C32.4858 10.7235 32.2987 10.6554 32.1125 10.4692C31.9263 10.283 31.8582 10.0959 31.839 10.0256C31.8252 9.97481 31.8417 10.0048 31.8417 10.18H35.8417C35.8417 9.5292 35.759 8.45891 34.9409 7.64079C34.1228 6.82266 33.0525 6.74 32.4017 6.74V10.74ZM31.8417 10.18V20.62H35.8417V10.18H31.8417ZM31.8417 20.62C31.8417 20.7952 31.8252 20.8252 31.839 20.7744C31.8582 20.7041 31.9263 20.517 32.1125 20.3308C32.2987 20.1446 32.4858 20.0765 32.5561 20.0573C32.6069 20.0435 32.5769 20.06 32.4017 20.06V24.06C33.0525 24.06 34.1228 23.9773 34.9409 23.1592C35.759 22.3411 35.8417 21.2708 35.8417 20.62H31.8417ZM32.4017 20.06H30.8897V24.06H32.4017V20.06ZM19.8897 20.98C19.8897 23.6659 20.6175 26.0462 22.3205 27.7492C24.0235 29.4522 26.4038 30.18 29.0897 30.18V26.18C27.0956 26.18 25.8759 25.6478 25.1489 24.9208C24.4219 24.1938 23.8897 22.9741 23.8897 20.98H19.8897ZM29.0897 30.18H34.2017V26.18H29.0897V30.18ZM34.2017 30.18C36.8876 30.18 39.2679 29.4522 40.9709 27.7492C42.6739 26.0462 43.4017 23.6659 43.4017 20.98H39.4017C39.4017 22.9741 38.8695 24.1938 38.1425 24.9208C37.4155 25.6478 36.1958 26.18 34.2017 26.18V30.18ZM43.4017 20.98V9.82H39.4017V20.98H43.4017ZM43.4017 9.82C43.4017 7.1341 42.6739 4.7538 40.9709 3.05078C39.2679 1.34777 36.8876 0.619998 34.2017 0.619998V4.62C36.1958 4.62 37.4155 5.15223 38.1425 5.87921C38.8695 6.60619 39.4017 7.8259 39.4017 9.82H43.4017ZM34.2017 0.619998H29.0897V4.62H34.2017V0.619998ZM29.0897 0.619998C26.4038 0.619998 24.0235 1.34777 22.3205 3.05079C20.6175 4.7538 19.8897 7.1341 19.8897 9.82H23.8897C23.8897 7.8259 24.4219 6.60619 25.1489 5.87921C25.8759 5.15223 27.0956 4.62 29.0897 4.62V0.619998ZM19.8897 9.82V20.98H23.8897V9.82H19.8897Z" fill="#272621"/>
<path opacity="0.8" d="M4.73156 45.12L6.72255 45.3096L6.72332 45.3016L6.72402 45.2935L4.73156 45.12ZM2.75156 46.34V44.34H0.751562V46.34H2.75156ZM2.75156 49.1H0.751562V51.1H2.75156V49.1ZM7.83156 45.34L9.82411 45.5126L9.82447 45.5083L7.83156 45.34ZM8.47156 37.76V35.76H6.63331L6.47865 37.5917L8.47156 37.76ZM11.2516 37.76H13.2516V35.76H11.2516V37.76ZM11.2516 46.46L11.5804 48.4328L13.2516 48.1543V46.46H11.2516ZM10.0516 46.66L9.72276 44.6872L8.05156 44.9657V46.66H10.0516ZM10.0516 49H8.05156V51H10.0516V49ZM15.6516 49V51H17.6516V49H15.6516ZM15.6516 46.66H17.6516V44.9657L15.9804 44.6872L15.6516 46.66ZM14.4516 46.46H12.4516V48.1543L14.1228 48.4328L14.4516 46.46ZM14.4516 37.54L14.1228 35.5672L12.4516 35.8457V37.54H14.4516ZM15.6516 37.34L15.9804 39.3128L17.6516 39.0343V37.34H15.6516ZM15.6516 35H17.6516V33H15.6516V35ZM4.19156 35V33H2.19156V35H4.19156ZM4.19156 37.34H2.19156V39.0343L3.86276 39.3128L4.19156 37.34ZM5.39156 37.54L7.38402 37.7135L7.54443 35.8712L5.72036 35.5672L5.39156 37.54ZM2.74057 44.9304C2.74091 44.9268 2.74802 44.8617 2.79687 44.7648C2.84774 44.6639 2.92632 44.5639 3.02717 44.4833C3.22645 44.3238 3.37561 44.34 3.31156 44.34V48.34C4.00751 48.34 4.82667 48.1662 5.52595 47.6067C6.26116 47.0186 6.63935 46.1833 6.72255 45.3096L2.74057 44.9304ZM3.31156 44.34H2.75156V48.34H3.31156V44.34ZM0.751562 46.34V49.1H4.75156V46.34H0.751562ZM2.75156 51.1H3.93156V47.1H2.75156V51.1ZM3.93156 51.1C5.41905 51.1 6.88106 50.6925 8.01335 49.6326C9.14037 48.5776 9.6853 47.1151 9.8241 45.5126L5.83902 45.1674C5.75782 46.1049 5.48276 46.5224 5.27978 46.7124C5.08207 46.8975 4.70408 47.1 3.93156 47.1V51.1ZM9.82447 45.5083L10.4645 37.9283L6.47865 37.5917L5.83865 45.1717L9.82447 45.5083ZM8.47156 39.76H11.2516V35.76H8.47156V39.76ZM9.25156 37.76V46.46H13.2516V37.76H9.25156ZM10.9228 44.4872L9.72276 44.6872L10.3804 48.6328L11.5804 48.4328L10.9228 44.4872ZM8.05156 46.66V49H12.0516V46.66H8.05156ZM10.0516 51H15.6516V47H10.0516V51ZM17.6516 49V46.66H13.6516V49H17.6516ZM15.9804 44.6872L14.7804 44.4872L14.1228 48.4328L15.3228 48.6328L15.9804 44.6872ZM16.4516 46.46V37.54H12.4516V46.46H16.4516ZM14.7804 39.5128L15.9804 39.3128L15.3228 35.3672L14.1228 35.5672L14.7804 39.5128ZM17.6516 37.34V35H13.6516V37.34H17.6516ZM15.6516 33H4.19156V37H15.6516V33ZM2.19156 35V37.34H6.19156V35H2.19156ZM3.86276 39.3128L5.06277 39.5128L5.72036 35.5672L4.52036 35.3672L3.86276 39.3128ZM3.3991 37.3665L2.7391 44.9465L6.72402 45.2935L7.38402 37.7135L3.3991 37.3665ZM25.5084 39.32L23.5444 39.6977L23.8564 41.32H25.5084V39.32ZM27.9484 39.32V41.32H29.9484V39.32H27.9484ZM27.9484 35H29.9484V33H27.9484V35ZM17.6484 35V33H15.6484V35H17.6484ZM17.6484 37.34H15.6484V39.0343L17.3196 39.3128L17.6484 37.34ZM18.8484 37.54H20.8484V35.8457L19.1772 35.5672L18.8484 37.54ZM18.8484 46.46L19.1772 48.4328L20.8484 48.1543V46.46H18.8484ZM17.6484 46.66L17.3196 44.6872L15.6484 44.9657V46.66H17.6484ZM17.6484 49H15.6484V51H17.6484V49ZM28.1484 49V51H30.1484V49H28.1484ZM28.1484 44.68H30.1484V42.68H28.1484V44.68ZM25.7084 44.68V42.68H24.0564L23.7444 44.3023L25.7084 44.68ZM25.4084 46.24V48.24H27.0605L27.3725 46.6177L25.4084 46.24ZM22.0484 46.24H20.0484V48.24H22.0484V46.24ZM22.0484 43.28V41.28H20.0484V43.28H22.0484ZM25.1684 43.28V45.28H27.1684V43.28H25.1684ZM25.1684 40.72H27.1684V38.72H25.1684V40.72ZM22.0484 40.72H20.0484V42.72H22.0484V40.72ZM22.0484 37.76V35.76H20.0484V37.76H22.0484ZM25.2084 37.76L27.1725 37.3823L26.8605 35.76H25.2084V37.76ZM25.5084 41.32H27.9484V37.32H25.5084V41.32ZM29.9484 39.32V35H25.9484V39.32H29.9484ZM27.9484 33H17.6484V37H27.9484V33ZM15.6484 35V37.34H19.6484V35H15.6484ZM17.3196 39.3128L18.5196 39.5128L19.1772 35.5672L17.9772 35.3672L17.3196 39.3128ZM16.8484 37.54V46.46H20.8484V37.54H16.8484ZM18.5196 44.4872L17.3196 44.6872L17.9772 48.6328L19.1772 48.4328L18.5196 44.4872ZM15.6484 46.66V49H19.6484V46.66H15.6484ZM17.6484 51H28.1484V47H17.6484V51ZM30.1484 49V44.68H26.1484V49H30.1484ZM28.1484 42.68H25.7084V46.68H28.1484V42.68ZM23.7444 44.3023L23.4444 45.8623L27.3725 46.6177L27.6725 45.0577L23.7444 44.3023ZM25.4084 44.24H22.0484V48.24H25.4084V44.24ZM24.0484 46.24V43.28H20.0484V46.24H24.0484ZM22.0484 45.28H25.1684V41.28H22.0484V45.28ZM27.1684 43.28V40.72H23.1684V43.28H27.1684ZM25.1684 38.72H22.0484V42.72H25.1684V38.72ZM24.0484 40.72V37.76H20.0484V40.72H24.0484ZM22.0484 39.76H25.2084V35.76H22.0484V39.76ZM23.2444 38.1377L23.5444 39.6977L27.4725 38.9423L27.1725 37.3823L23.2444 38.1377ZM33.8461 46.46L34.1749 48.4328L35.8461 48.1543V46.46H33.8461ZM32.6461 46.66L32.3173 44.6872L30.6461 44.9657V46.66H32.6461ZM32.6461 49H30.6461V51H32.6461V49ZM38.2461 49V51H40.2461V49H38.2461ZM38.2461 46.66H40.2461V44.9657L38.5749 44.6872L38.2461 46.66ZM37.0461 46.46H35.0461V48.1543L36.7173 48.4328L37.0461 46.46ZM37.0461 37.76V35.76H35.0461V37.76H37.0461ZM38.6461 37.76L40.6148 37.4074L40.3197 35.76H38.6461V37.76ZM38.8861 39.1L36.9174 39.4526L37.2125 41.1H38.8861V39.1ZM41.0461 39.1V41.1H43.0461V39.1H41.0461ZM41.0461 35H43.0461V33H41.0461V35ZM29.8461 35V33H27.8461V35H29.8461ZM29.8461 39.1H27.8461V41.1H29.8461V39.1ZM32.0061 39.1V41.1H33.6797L33.9748 39.4526L32.0061 39.1ZM32.2461 37.76V35.76H30.5725L30.2774 37.4074L32.2461 37.76ZM33.8461 37.76H35.8461V35.76H33.8461V37.76ZM33.5173 44.4872L32.3173 44.6872L32.9749 48.6328L34.1749 48.4328L33.5173 44.4872ZM30.6461 46.66V49H34.6461V46.66H30.6461ZM32.6461 51H38.2461V47H32.6461V51ZM40.2461 49V46.66H36.2461V49H40.2461ZM38.5749 44.6872L37.3749 44.4872L36.7173 48.4328L37.9173 48.6328L38.5749 44.6872ZM39.0461 46.46V37.76H35.0461V46.46H39.0461ZM37.0461 39.76H38.6461V35.76H37.0461V39.76ZM36.6774 38.1126L36.9174 39.4526L40.8548 38.7474L40.6148 37.4074L36.6774 38.1126ZM38.8861 41.1H41.0461V37.1H38.8861V41.1ZM43.0461 39.1V35H39.0461V39.1H43.0461ZM41.0461 33H29.8461V37H41.0461V33ZM27.8461 35V39.1H31.8461V35H27.8461ZM29.8461 41.1H32.0061V37.1H29.8461V41.1ZM33.9748 39.4526L34.2148 38.1126L30.2774 37.4074L30.0374 38.7474L33.9748 39.4526ZM32.2461 39.76H33.8461V35.76H32.2461V39.76ZM31.8461 37.76V46.46H35.8461V37.76H31.8461Z" fill="#272621"/>
</svg>
