<svg width="54" height="54" viewBox="0 0 54 54" fill="none" xmlns="http://www.w3.org/2000/svg">
<g opacity="0.8">
<mask id="path-1-outside-1" maskUnits="userSpaceOnUse" x="1.00918" y="1.00269" width="52" height="52" fill="black">
<rect fill="white" x="1.00918" y="1.00269" width="52" height="52"/>
<path d="M47.9043 16.5198C47.7146 14.9432 46.9531 13.491 45.7641 12.4383C44.5752 11.3857 43.0414 10.8058 41.4534 10.8085H41.4197C40.1782 9.96582 38.7195 9.50037 37.2195 9.46825C35.7194 9.43614 34.2421 9.83874 32.9657 10.6275C32.7298 10.5051 32.4876 10.3953 32.2401 10.2984C32.038 8.45229 31.1608 6.74596 29.777 5.50733C28.3933 4.2687 26.6005 3.58517 24.7434 3.58808C24.7172 3.58808 24.6915 3.58808 24.6658 3.58808C23.1544 2.55525 21.3665 2.00269 19.536 2.00269C17.7054 2.00269 15.9175 2.55525 14.4062 3.58808C14.3804 3.58808 14.3547 3.58808 14.3286 3.58808C12.4717 3.58571 10.6795 4.26955 9.29626 5.50822C7.91299 6.7469 7.03621 8.45303 6.83437 10.2988C5.38708 10.8592 4.14758 11.8518 3.28453 13.1416C2.42148 14.4315 1.9768 15.9559 2.01101 17.5075C2.04522 19.0591 2.55665 20.5625 3.47571 21.8131C4.39477 23.0636 5.67683 24.0006 7.1474 24.4966C7.90823 26.009 9.07339 27.281 10.5135 28.1711C11.9536 29.0613 13.6122 29.5349 15.3052 29.5393C15.9887 29.5379 16.6699 29.4591 17.3357 29.3043C17.1539 37.2832 16.767 46.5624 16.1688 50.5196H14.4737C14.2779 50.5196 14.0901 50.5973 13.9516 50.7358C13.8132 50.8743 13.7354 51.062 13.7354 51.2578C13.7354 51.4536 13.8132 51.6414 13.9516 51.7799C14.0901 51.9183 14.2779 51.9961 14.4737 51.9961H24.5987C24.7945 51.9961 24.9823 51.9183 25.1207 51.7799C25.2592 51.6414 25.337 51.4536 25.337 51.2578C25.337 51.062 25.2592 50.8743 25.1207 50.7358C24.9823 50.5973 24.7945 50.5196 24.5987 50.5196H22.9053C22.6125 48.5899 22.3509 45.2883 22.1273 40.673L26.8945 37.471C26.9747 37.4171 27.0435 37.3479 27.0969 37.2673C27.1503 37.1868 27.1872 37.0965 27.2057 37.0017C27.2241 36.9068 27.2236 36.8093 27.2042 36.7146C27.1849 36.6199 27.147 36.53 27.0928 36.45L25.6837 34.3449C25.6307 34.2636 25.5619 34.1938 25.4815 34.1394C25.4011 34.0851 25.3107 34.0474 25.2155 34.0285C25.0221 33.9912 24.8218 34.0321 24.6586 34.1424L21.9333 35.9733C21.8552 33.8462 21.7911 31.5753 21.7363 29.3043C23.3737 29.6874 25.086 29.6007 26.6764 29.0541C27.3651 30.2476 28.3548 31.2395 29.5466 31.931C30.7384 32.6225 32.0907 32.9893 33.4686 32.9949C33.9732 32.9933 34.4763 32.9422 34.9709 32.8422C34.9439 34.3086 34.911 35.7852 34.8692 37.2052L32.5363 35.8847C32.4521 35.8367 32.3593 35.8058 32.2632 35.7938C32.1671 35.7819 32.0696 35.789 31.9763 35.8149C31.8829 35.8408 31.7956 35.8849 31.7194 35.9446C31.6432 36.0044 31.5796 36.0787 31.5322 36.1632L30.2834 38.3653C30.2347 38.4493 30.2033 38.5421 30.191 38.6384C30.1786 38.7346 30.1856 38.8324 30.2116 38.9259C30.2375 39.0194 30.2818 39.1068 30.342 39.183C30.4021 39.2591 30.4769 39.3225 30.5619 39.3694L34.7216 41.7277C34.5528 45.8654 34.3457 48.8152 34.1014 50.5196H31.9849C31.7891 50.5196 31.6013 50.5973 31.4628 50.7358C31.3244 50.8743 31.2466 51.062 31.2466 51.2578C31.2466 51.4536 31.3244 51.6414 31.4628 51.7799C31.6013 51.9183 31.7891 51.9961 31.9849 51.9961H42.1099C42.3057 51.9961 42.4935 51.9183 42.6319 51.7799C42.7704 51.6414 42.8481 51.4536 42.8481 51.2578C42.8481 51.062 42.7704 50.8743 42.6319 50.7358C42.4935 50.5973 42.3057 50.5196 42.1099 50.5196H39.9971C39.4626 46.8493 39.2259 38.3379 39.1243 32.843C39.6188 32.9432 40.122 32.9945 40.6266 32.9961C42.0729 32.9929 43.4904 32.5907 44.7229 31.8337C45.9553 31.0767 46.9551 29.9943 47.612 28.7057C48.8665 28.2737 49.9589 27.4682 50.7423 26.3974C51.5258 25.3265 51.9627 24.0415 51.9946 22.715C52.0264 21.3886 51.6515 20.0841 50.9204 18.9769C50.1892 17.8697 49.1367 17.0127 47.9043 16.5211V16.5198ZM20.5031 37.3571C20.5087 37.4884 20.5492 37.6159 20.6204 37.7264C20.6916 37.8369 20.791 37.9264 20.9084 37.9857C21.0257 38.045 21.1567 38.0719 21.2879 38.0638C21.4191 38.0556 21.5458 38.0126 21.6548 37.9393L24.8695 35.7792L25.4559 36.6567L20.9545 39.6816C20.8498 39.7525 20.7649 39.849 20.7081 39.962C20.6512 40.075 20.6242 40.2007 20.6297 40.3271C20.8533 45.0225 21.1148 48.4397 21.4144 50.5196H17.6597C18.4026 45.3195 18.7274 33.2682 18.8224 28.8242C19.0637 28.723 19.3029 28.6133 19.5362 28.4926C19.7686 28.6145 20.0074 28.7225 20.2487 28.8238C20.315 31.7512 20.4031 34.6921 20.5031 37.3571ZM19.9091 27.0114C19.7959 26.9451 19.6671 26.9102 19.536 26.9102C19.4048 26.9102 19.276 26.9451 19.1628 27.0114C18.24 27.5533 17.2135 27.8952 16.15 28.0149C15.0865 28.1346 14.0098 28.0293 12.9896 27.706C11.9694 27.3828 11.0285 26.8486 10.228 26.1383C9.42755 25.428 8.78532 24.5574 8.34299 23.5828C8.29881 23.4859 8.23414 23.3997 8.15345 23.3302C8.07275 23.2606 7.97795 23.2094 7.87556 23.18C6.62045 22.818 5.51545 22.0611 4.72446 21.0215C3.93347 19.982 3.49862 18.7151 3.48441 17.4089C3.47021 16.1028 3.8774 14.8268 4.64559 13.7703C5.41378 12.7138 6.50206 11.933 7.74899 11.5438C7.89455 11.4988 8.02264 11.41 8.1157 11.2893C8.20875 11.1687 8.26221 11.0223 8.26874 10.8701C8.33358 9.30711 9.00063 7.82987 10.1302 6.74771C11.2598 5.66555 12.7643 5.06242 14.3286 5.06464C14.3737 5.06464 14.4184 5.06801 14.4627 5.07139L14.5893 5.07814C14.7552 5.08471 14.9186 5.03555 15.0533 4.9385C16.3556 3.99078 17.9247 3.48025 19.5353 3.48025C21.1459 3.48025 22.7151 3.99078 24.0173 4.9385C24.1523 5.03502 24.3156 5.08399 24.4814 5.07772L24.608 5.07097C24.6523 5.06759 24.697 5.06422 24.7421 5.06422C26.3068 5.06167 27.8117 5.66468 28.9417 6.74694C30.0717 7.8292 30.7391 9.30674 30.804 10.8701C30.8106 11.0218 30.8638 11.1679 30.9566 11.2882C31.0493 11.4085 31.177 11.4972 31.3221 11.5421C31.762 11.6797 32.185 11.8663 32.5831 12.0986C32.6119 12.1176 32.6421 12.1345 32.6734 12.1492C33.6819 12.7624 34.49 13.6561 34.9988 14.7211C35.5076 15.7861 35.6952 16.9763 35.5386 18.1462C35.382 19.316 34.8879 20.415 34.1169 21.3086C33.3458 22.2023 32.3311 22.852 31.1968 23.1783C31.0944 23.2078 30.9997 23.259 30.919 23.3286C30.8383 23.3981 30.7736 23.4843 30.7294 23.5812C30.2872 24.5558 29.6451 25.4265 28.8447 26.137C28.0443 26.8474 27.1035 27.3817 26.0834 27.7051C25.0632 28.0286 23.9865 28.134 22.9229 28.0145C21.8594 27.8949 20.8329 27.5532 19.91 27.0114H19.9091ZM35.5894 50.5196C35.8425 48.6591 36.0492 45.5752 36.2137 41.3353C36.2186 41.1999 36.1862 41.0656 36.12 40.9473C36.0538 40.829 35.9563 40.7312 35.8383 40.6646L31.9317 38.4497L32.4506 37.53L35.2097 39.091C35.3203 39.1534 35.4452 39.1861 35.5723 39.1862C35.6993 39.1862 35.8242 39.1535 35.9349 39.0911C36.0456 39.0288 36.1384 38.9389 36.2042 38.8303C36.2701 38.7216 36.3068 38.5978 36.3108 38.4708C36.3694 36.5361 36.4167 34.4482 36.4534 32.3958C36.6542 32.314 36.8529 32.2245 37.0474 32.1241C37.2418 32.2245 37.4397 32.3135 37.638 32.3958C37.7329 37.7916 37.9675 46.5155 38.5071 50.5187L35.5894 50.5196ZM46.8817 27.3873C46.7793 27.4167 46.6844 27.4679 46.6037 27.5374C46.523 27.607 46.4584 27.6932 46.4143 27.7902C45.907 28.9 45.0922 29.8411 44.0664 30.5018C43.0405 31.1626 41.8468 31.5154 40.6266 31.5183C39.9374 31.5196 39.253 31.4055 38.6015 31.1808C38.192 31.0465 37.7983 30.868 37.4275 30.6484C37.314 30.5813 37.1847 30.5459 37.0528 30.5459C36.921 30.5459 36.7917 30.5813 36.6782 30.6484C35.7016 31.2121 34.595 31.5119 33.4673 31.5183C32.3785 31.5132 31.309 31.2301 30.3602 30.696C29.4113 30.1618 28.6146 29.3943 28.0454 28.466C29.7184 27.576 31.0744 26.1892 31.9266 24.4966C33.1986 24.0683 34.3333 23.3088 35.2142 22.2962C36.095 21.2836 36.6901 20.0545 36.9381 18.7356C37.1862 17.4166 37.0782 16.0553 36.6253 14.7919C36.1725 13.5286 35.3911 12.4087 34.3617 11.5476C35.3861 11.0635 36.522 10.8645 37.65 10.9717C38.7779 11.0789 39.856 11.4883 40.7708 12.1568C40.9074 12.2573 41.0749 12.3067 41.2442 12.2964L41.3349 12.2909C41.3741 12.2884 41.4129 12.285 41.4534 12.285C42.7481 12.2831 43.9933 12.7821 44.9285 13.6775C45.8636 14.5729 46.4161 15.7954 46.4704 17.0889C46.4772 17.2406 46.5306 17.3865 46.6233 17.5068C46.716 17.627 46.8435 17.7158 46.9884 17.761C48.0206 18.0823 48.9217 18.7281 49.5577 19.6023C50.1937 20.4766 50.5307 21.5326 50.5187 22.6137C50.5067 23.6947 50.1464 24.743 49.4911 25.6029C48.8359 26.4629 47.9208 27.0885 46.8817 27.3869V27.3873Z"/>
</mask>
<path d="M47.9043 16.5198C47.7146 14.9432 46.9531 13.491 45.7641 12.4383C44.5752 11.3857 43.0414 10.8058 41.4534 10.8085H41.4197C40.1782 9.96582 38.7195 9.50037 37.2195 9.46825C35.7194 9.43614 34.2421 9.83874 32.9657 10.6275C32.7298 10.5051 32.4876 10.3953 32.2401 10.2984C32.038 8.45229 31.1608 6.74596 29.777 5.50733C28.3933 4.2687 26.6005 3.58517 24.7434 3.58808C24.7172 3.58808 24.6915 3.58808 24.6658 3.58808C23.1544 2.55525 21.3665 2.00269 19.536 2.00269C17.7054 2.00269 15.9175 2.55525 14.4062 3.58808C14.3804 3.58808 14.3547 3.58808 14.3286 3.58808C12.4717 3.58571 10.6795 4.26955 9.29626 5.50822C7.91299 6.7469 7.03621 8.45303 6.83437 10.2988C5.38708 10.8592 4.14758 11.8518 3.28453 13.1416C2.42148 14.4315 1.9768 15.9559 2.01101 17.5075C2.04522 19.0591 2.55665 20.5625 3.47571 21.8131C4.39477 23.0636 5.67683 24.0006 7.1474 24.4966C7.90823 26.009 9.07339 27.281 10.5135 28.1711C11.9536 29.0613 13.6122 29.5349 15.3052 29.5393C15.9887 29.5379 16.6699 29.4591 17.3357 29.3043C17.1539 37.2832 16.767 46.5624 16.1688 50.5196H14.4737C14.2779 50.5196 14.0901 50.5973 13.9516 50.7358C13.8132 50.8743 13.7354 51.062 13.7354 51.2578C13.7354 51.4536 13.8132 51.6414 13.9516 51.7799C14.0901 51.9183 14.2779 51.9961 14.4737 51.9961H24.5987C24.7945 51.9961 24.9823 51.9183 25.1207 51.7799C25.2592 51.6414 25.337 51.4536 25.337 51.2578C25.337 51.062 25.2592 50.8743 25.1207 50.7358C24.9823 50.5973 24.7945 50.5196 24.5987 50.5196H22.9053C22.6125 48.5899 22.3509 45.2883 22.1273 40.673L26.8945 37.471C26.9747 37.4171 27.0435 37.3479 27.0969 37.2673C27.1503 37.1868 27.1872 37.0965 27.2057 37.0017C27.2241 36.9068 27.2236 36.8093 27.2042 36.7146C27.1849 36.6199 27.147 36.53 27.0928 36.45L25.6837 34.3449C25.6307 34.2636 25.5619 34.1938 25.4815 34.1394C25.4011 34.0851 25.3107 34.0474 25.2155 34.0285C25.0221 33.9912 24.8218 34.0321 24.6586 34.1424L21.9333 35.9733C21.8552 33.8462 21.7911 31.5753 21.7363 29.3043C23.3737 29.6874 25.086 29.6007 26.6764 29.0541C27.3651 30.2476 28.3548 31.2395 29.5466 31.931C30.7384 32.6225 32.0907 32.9893 33.4686 32.9949C33.9732 32.9933 34.4763 32.9422 34.9709 32.8422C34.9439 34.3086 34.911 35.7852 34.8692 37.2052L32.5363 35.8847C32.4521 35.8367 32.3593 35.8058 32.2632 35.7938C32.1671 35.7819 32.0696 35.789 31.9763 35.8149C31.8829 35.8408 31.7956 35.8849 31.7194 35.9446C31.6432 36.0044 31.5796 36.0787 31.5322 36.1632L30.2834 38.3653C30.2347 38.4493 30.2033 38.5421 30.191 38.6384C30.1786 38.7346 30.1856 38.8324 30.2116 38.9259C30.2375 39.0194 30.2818 39.1068 30.342 39.183C30.4021 39.2591 30.4769 39.3225 30.5619 39.3694L34.7216 41.7277C34.5528 45.8654 34.3457 48.8152 34.1014 50.5196H31.9849C31.7891 50.5196 31.6013 50.5973 31.4628 50.7358C31.3244 50.8743 31.2466 51.062 31.2466 51.2578C31.2466 51.4536 31.3244 51.6414 31.4628 51.7799C31.6013 51.9183 31.7891 51.9961 31.9849 51.9961H42.1099C42.3057 51.9961 42.4935 51.9183 42.6319 51.7799C42.7704 51.6414 42.8481 51.4536 42.8481 51.2578C42.8481 51.062 42.7704 50.8743 42.6319 50.7358C42.4935 50.5973 42.3057 50.5196 42.1099 50.5196H39.9971C39.4626 46.8493 39.2259 38.3379 39.1243 32.843C39.6188 32.9432 40.122 32.9945 40.6266 32.9961C42.0729 32.9929 43.4904 32.5907 44.7229 31.8337C45.9553 31.0767 46.9551 29.9943 47.612 28.7057C48.8665 28.2737 49.9589 27.4682 50.7423 26.3974C51.5258 25.3265 51.9627 24.0415 51.9946 22.715C52.0264 21.3886 51.6515 20.0841 50.9204 18.9769C50.1892 17.8697 49.1367 17.0127 47.9043 16.5211V16.5198ZM20.5031 37.3571C20.5087 37.4884 20.5492 37.6159 20.6204 37.7264C20.6916 37.8369 20.791 37.9264 20.9084 37.9857C21.0257 38.045 21.1567 38.0719 21.2879 38.0638C21.4191 38.0556 21.5458 38.0126 21.6548 37.9393L24.8695 35.7792L25.4559 36.6567L20.9545 39.6816C20.8498 39.7525 20.7649 39.849 20.7081 39.962C20.6512 40.075 20.6242 40.2007 20.6297 40.3271C20.8533 45.0225 21.1148 48.4397 21.4144 50.5196H17.6597C18.4026 45.3195 18.7274 33.2682 18.8224 28.8242C19.0637 28.723 19.3029 28.6133 19.5362 28.4926C19.7686 28.6145 20.0074 28.7225 20.2487 28.8238C20.315 31.7512 20.4031 34.6921 20.5031 37.3571ZM19.9091 27.0114C19.7959 26.9451 19.6671 26.9102 19.536 26.9102C19.4048 26.9102 19.276 26.9451 19.1628 27.0114C18.24 27.5533 17.2135 27.8952 16.15 28.0149C15.0865 28.1346 14.0098 28.0293 12.9896 27.706C11.9694 27.3828 11.0285 26.8486 10.228 26.1383C9.42755 25.428 8.78532 24.5574 8.34299 23.5828C8.29881 23.4859 8.23414 23.3997 8.15345 23.3302C8.07275 23.2606 7.97795 23.2094 7.87556 23.18C6.62045 22.818 5.51545 22.0611 4.72446 21.0215C3.93347 19.982 3.49862 18.7151 3.48441 17.4089C3.47021 16.1028 3.8774 14.8268 4.64559 13.7703C5.41378 12.7138 6.50206 11.933 7.74899 11.5438C7.89455 11.4988 8.02264 11.41 8.1157 11.2893C8.20875 11.1687 8.26221 11.0223 8.26874 10.8701C8.33358 9.30711 9.00063 7.82987 10.1302 6.74771C11.2598 5.66555 12.7643 5.06242 14.3286 5.06464C14.3737 5.06464 14.4184 5.06801 14.4627 5.07139L14.5893 5.07814C14.7552 5.08471 14.9186 5.03555 15.0533 4.9385C16.3556 3.99078 17.9247 3.48025 19.5353 3.48025C21.1459 3.48025 22.7151 3.99078 24.0173 4.9385C24.1523 5.03502 24.3156 5.08399 24.4814 5.07772L24.608 5.07097C24.6523 5.06759 24.697 5.06422 24.7421 5.06422C26.3068 5.06167 27.8117 5.66468 28.9417 6.74694C30.0717 7.8292 30.7391 9.30674 30.804 10.8701C30.8106 11.0218 30.8638 11.1679 30.9566 11.2882C31.0493 11.4085 31.177 11.4972 31.3221 11.5421C31.762 11.6797 32.185 11.8663 32.5831 12.0986C32.6119 12.1176 32.6421 12.1345 32.6734 12.1492C33.6819 12.7624 34.49 13.6561 34.9988 14.7211C35.5076 15.7861 35.6952 16.9763 35.5386 18.1462C35.382 19.316 34.8879 20.415 34.1169 21.3086C33.3458 22.2023 32.3311 22.852 31.1968 23.1783C31.0944 23.2078 30.9997 23.259 30.919 23.3286C30.8383 23.3981 30.7736 23.4843 30.7294 23.5812C30.2872 24.5558 29.6451 25.4265 28.8447 26.137C28.0443 26.8474 27.1035 27.3817 26.0834 27.7051C25.0632 28.0286 23.9865 28.134 22.9229 28.0145C21.8594 27.8949 20.8329 27.5532 19.91 27.0114H19.9091ZM35.5894 50.5196C35.8425 48.6591 36.0492 45.5752 36.2137 41.3353C36.2186 41.1999 36.1862 41.0656 36.12 40.9473C36.0538 40.829 35.9563 40.7312 35.8383 40.6646L31.9317 38.4497L32.4506 37.53L35.2097 39.091C35.3203 39.1534 35.4452 39.1861 35.5723 39.1862C35.6993 39.1862 35.8242 39.1535 35.9349 39.0911C36.0456 39.0288 36.1384 38.9389 36.2042 38.8303C36.2701 38.7216 36.3068 38.5978 36.3108 38.4708C36.3694 36.5361 36.4167 34.4482 36.4534 32.3958C36.6542 32.314 36.8529 32.2245 37.0474 32.1241C37.2418 32.2245 37.4397 32.3135 37.638 32.3958C37.7329 37.7916 37.9675 46.5155 38.5071 50.5187L35.5894 50.5196ZM46.8817 27.3873C46.7793 27.4167 46.6844 27.4679 46.6037 27.5374C46.523 27.607 46.4584 27.6932 46.4143 27.7902C45.907 28.9 45.0922 29.8411 44.0664 30.5018C43.0405 31.1626 41.8468 31.5154 40.6266 31.5183C39.9374 31.5196 39.253 31.4055 38.6015 31.1808C38.192 31.0465 37.7983 30.868 37.4275 30.6484C37.314 30.5813 37.1847 30.5459 37.0528 30.5459C36.921 30.5459 36.7917 30.5813 36.6782 30.6484C35.7016 31.2121 34.595 31.5119 33.4673 31.5183C32.3785 31.5132 31.309 31.2301 30.3602 30.696C29.4113 30.1618 28.6146 29.3943 28.0454 28.466C29.7184 27.576 31.0744 26.1892 31.9266 24.4966C33.1986 24.0683 34.3333 23.3088 35.2142 22.2962C36.095 21.2836 36.6901 20.0545 36.9381 18.7356C37.1862 17.4166 37.0782 16.0553 36.6253 14.7919C36.1725 13.5286 35.3911 12.4087 34.3617 11.5476C35.3861 11.0635 36.522 10.8645 37.65 10.9717C38.7779 11.0789 39.856 11.4883 40.7708 12.1568C40.9074 12.2573 41.0749 12.3067 41.2442 12.2964L41.3349 12.2909C41.3741 12.2884 41.4129 12.285 41.4534 12.285C42.7481 12.2831 43.9933 12.7821 44.9285 13.6775C45.8636 14.5729 46.4161 15.7954 46.4704 17.0889C46.4772 17.2406 46.5306 17.3865 46.6233 17.5068C46.716 17.627 46.8435 17.7158 46.9884 17.761C48.0206 18.0823 48.9217 18.7281 49.5577 19.6023C50.1937 20.4766 50.5307 21.5326 50.5187 22.6137C50.5067 23.6947 50.1464 24.743 49.4911 25.6029C48.8359 26.4629 47.9208 27.0885 46.8817 27.3869V27.3873Z" fill="#272621"/>
<path d="M47.9043 16.5198C47.7146 14.9432 46.9531 13.491 45.7641 12.4383C44.5752 11.3857 43.0414 10.8058 41.4534 10.8085H41.4197C40.1782 9.96582 38.7195 9.50037 37.2195 9.46825C35.7194 9.43614 34.2421 9.83874 32.9657 10.6275C32.7298 10.5051 32.4876 10.3953 32.2401 10.2984C32.038 8.45229 31.1608 6.74596 29.777 5.50733C28.3933 4.2687 26.6005 3.58517 24.7434 3.58808C24.7172 3.58808 24.6915 3.58808 24.6658 3.58808C23.1544 2.55525 21.3665 2.00269 19.536 2.00269C17.7054 2.00269 15.9175 2.55525 14.4062 3.58808C14.3804 3.58808 14.3547 3.58808 14.3286 3.58808C12.4717 3.58571 10.6795 4.26955 9.29626 5.50822C7.91299 6.7469 7.03621 8.45303 6.83437 10.2988C5.38708 10.8592 4.14758 11.8518 3.28453 13.1416C2.42148 14.4315 1.9768 15.9559 2.01101 17.5075C2.04522 19.0591 2.55665 20.5625 3.47571 21.8131C4.39477 23.0636 5.67683 24.0006 7.1474 24.4966C7.90823 26.009 9.07339 27.281 10.5135 28.1711C11.9536 29.0613 13.6122 29.5349 15.3052 29.5393C15.9887 29.5379 16.6699 29.4591 17.3357 29.3043C17.1539 37.2832 16.767 46.5624 16.1688 50.5196H14.4737C14.2779 50.5196 14.0901 50.5973 13.9516 50.7358C13.8132 50.8743 13.7354 51.062 13.7354 51.2578C13.7354 51.4536 13.8132 51.6414 13.9516 51.7799C14.0901 51.9183 14.2779 51.9961 14.4737 51.9961H24.5987C24.7945 51.9961 24.9823 51.9183 25.1207 51.7799C25.2592 51.6414 25.337 51.4536 25.337 51.2578C25.337 51.062 25.2592 50.8743 25.1207 50.7358C24.9823 50.5973 24.7945 50.5196 24.5987 50.5196H22.9053C22.6125 48.5899 22.3509 45.2883 22.1273 40.673L26.8945 37.471C26.9747 37.4171 27.0435 37.3479 27.0969 37.2673C27.1503 37.1868 27.1872 37.0965 27.2057 37.0017C27.2241 36.9068 27.2236 36.8093 27.2042 36.7146C27.1849 36.6199 27.147 36.53 27.0928 36.45L25.6837 34.3449C25.6307 34.2636 25.5619 34.1938 25.4815 34.1394C25.4011 34.0851 25.3107 34.0474 25.2155 34.0285C25.0221 33.9912 24.8218 34.0321 24.6586 34.1424L21.9333 35.9733C21.8552 33.8462 21.7911 31.5753 21.7363 29.3043C23.3737 29.6874 25.086 29.6007 26.6764 29.0541C27.3651 30.2476 28.3548 31.2395 29.5466 31.931C30.7384 32.6225 32.0907 32.9893 33.4686 32.9949C33.9732 32.9933 34.4763 32.9422 34.9709 32.8422C34.9439 34.3086 34.911 35.7852 34.8692 37.2052L32.5363 35.8847C32.4521 35.8367 32.3593 35.8058 32.2632 35.7938C32.1671 35.7819 32.0696 35.789 31.9763 35.8149C31.8829 35.8408 31.7956 35.8849 31.7194 35.9446C31.6432 36.0044 31.5796 36.0787 31.5322 36.1632L30.2834 38.3653C30.2347 38.4493 30.2033 38.5421 30.191 38.6384C30.1786 38.7346 30.1856 38.8324 30.2116 38.9259C30.2375 39.0194 30.2818 39.1068 30.342 39.183C30.4021 39.2591 30.4769 39.3225 30.5619 39.3694L34.7216 41.7277C34.5528 45.8654 34.3457 48.8152 34.1014 50.5196H31.9849C31.7891 50.5196 31.6013 50.5973 31.4628 50.7358C31.3244 50.8743 31.2466 51.062 31.2466 51.2578C31.2466 51.4536 31.3244 51.6414 31.4628 51.7799C31.6013 51.9183 31.7891 51.9961 31.9849 51.9961H42.1099C42.3057 51.9961 42.4935 51.9183 42.6319 51.7799C42.7704 51.6414 42.8481 51.4536 42.8481 51.2578C42.8481 51.062 42.7704 50.8743 42.6319 50.7358C42.4935 50.5973 42.3057 50.5196 42.1099 50.5196H39.9971C39.4626 46.8493 39.2259 38.3379 39.1243 32.843C39.6188 32.9432 40.122 32.9945 40.6266 32.9961C42.0729 32.9929 43.4904 32.5907 44.7229 31.8337C45.9553 31.0767 46.9551 29.9943 47.612 28.7057C48.8665 28.2737 49.9589 27.4682 50.7423 26.3974C51.5258 25.3265 51.9627 24.0415 51.9946 22.715C52.0264 21.3886 51.6515 20.0841 50.9204 18.9769C50.1892 17.8697 49.1367 17.0127 47.9043 16.5211V16.5198ZM20.5031 37.3571C20.5087 37.4884 20.5492 37.6159 20.6204 37.7264C20.6916 37.8369 20.791 37.9264 20.9084 37.9857C21.0257 38.045 21.1567 38.0719 21.2879 38.0638C21.4191 38.0556 21.5458 38.0126 21.6548 37.9393L24.8695 35.7792L25.4559 36.6567L20.9545 39.6816C20.8498 39.7525 20.7649 39.849 20.7081 39.962C20.6512 40.075 20.6242 40.2007 20.6297 40.3271C20.8533 45.0225 21.1148 48.4397 21.4144 50.5196H17.6597C18.4026 45.3195 18.7274 33.2682 18.8224 28.8242C19.0637 28.723 19.3029 28.6133 19.5362 28.4926C19.7686 28.6145 20.0074 28.7225 20.2487 28.8238C20.315 31.7512 20.4031 34.6921 20.5031 37.3571ZM19.9091 27.0114C19.7959 26.9451 19.6671 26.9102 19.536 26.9102C19.4048 26.9102 19.276 26.9451 19.1628 27.0114C18.24 27.5533 17.2135 27.8952 16.15 28.0149C15.0865 28.1346 14.0098 28.0293 12.9896 27.706C11.9694 27.3828 11.0285 26.8486 10.228 26.1383C9.42755 25.428 8.78532 24.5574 8.34299 23.5828C8.29881 23.4859 8.23414 23.3997 8.15345 23.3302C8.07275 23.2606 7.97795 23.2094 7.87556 23.18C6.62045 22.818 5.51545 22.0611 4.72446 21.0215C3.93347 19.982 3.49862 18.7151 3.48441 17.4089C3.47021 16.1028 3.8774 14.8268 4.64559 13.7703C5.41378 12.7138 6.50206 11.933 7.74899 11.5438C7.89455 11.4988 8.02264 11.41 8.1157 11.2893C8.20875 11.1687 8.26221 11.0223 8.26874 10.8701C8.33358 9.30711 9.00063 7.82987 10.1302 6.74771C11.2598 5.66555 12.7643 5.06242 14.3286 5.06464C14.3737 5.06464 14.4184 5.06801 14.4627 5.07139L14.5893 5.07814C14.7552 5.08471 14.9186 5.03555 15.0533 4.9385C16.3556 3.99078 17.9247 3.48025 19.5353 3.48025C21.1459 3.48025 22.7151 3.99078 24.0173 4.9385C24.1523 5.03502 24.3156 5.08399 24.4814 5.07772L24.608 5.07097C24.6523 5.06759 24.697 5.06422 24.7421 5.06422C26.3068 5.06167 27.8117 5.66468 28.9417 6.74694C30.0717 7.8292 30.7391 9.30674 30.804 10.8701C30.8106 11.0218 30.8638 11.1679 30.9566 11.2882C31.0493 11.4085 31.177 11.4972 31.3221 11.5421C31.762 11.6797 32.185 11.8663 32.5831 12.0986C32.6119 12.1176 32.6421 12.1345 32.6734 12.1492C33.6819 12.7624 34.49 13.6561 34.9988 14.7211C35.5076 15.7861 35.6952 16.9763 35.5386 18.1462C35.382 19.316 34.8879 20.415 34.1169 21.3086C33.3458 22.2023 32.3311 22.852 31.1968 23.1783C31.0944 23.2078 30.9997 23.259 30.919 23.3286C30.8383 23.3981 30.7736 23.4843 30.7294 23.5812C30.2872 24.5558 29.6451 25.4265 28.8447 26.137C28.0443 26.8474 27.1035 27.3817 26.0834 27.7051C25.0632 28.0286 23.9865 28.134 22.9229 28.0145C21.8594 27.8949 20.8329 27.5532 19.91 27.0114H19.9091ZM35.5894 50.5196C35.8425 48.6591 36.0492 45.5752 36.2137 41.3353C36.2186 41.1999 36.1862 41.0656 36.12 40.9473C36.0538 40.829 35.9563 40.7312 35.8383 40.6646L31.9317 38.4497L32.4506 37.53L35.2097 39.091C35.3203 39.1534 35.4452 39.1861 35.5723 39.1862C35.6993 39.1862 35.8242 39.1535 35.9349 39.0911C36.0456 39.0288 36.1384 38.9389 36.2042 38.8303C36.2701 38.7216 36.3068 38.5978 36.3108 38.4708C36.3694 36.5361 36.4167 34.4482 36.4534 32.3958C36.6542 32.314 36.8529 32.2245 37.0474 32.1241C37.2418 32.2245 37.4397 32.3135 37.638 32.3958C37.7329 37.7916 37.9675 46.5155 38.5071 50.5187L35.5894 50.5196ZM46.8817 27.3873C46.7793 27.4167 46.6844 27.4679 46.6037 27.5374C46.523 27.607 46.4584 27.6932 46.4143 27.7902C45.907 28.9 45.0922 29.8411 44.0664 30.5018C43.0405 31.1626 41.8468 31.5154 40.6266 31.5183C39.9374 31.5196 39.253 31.4055 38.6015 31.1808C38.192 31.0465 37.7983 30.868 37.4275 30.6484C37.314 30.5813 37.1847 30.5459 37.0528 30.5459C36.921 30.5459 36.7917 30.5813 36.6782 30.6484C35.7016 31.2121 34.595 31.5119 33.4673 31.5183C32.3785 31.5132 31.309 31.2301 30.3602 30.696C29.4113 30.1618 28.6146 29.3943 28.0454 28.466C29.7184 27.576 31.0744 26.1892 31.9266 24.4966C33.1986 24.0683 34.3333 23.3088 35.2142 22.2962C36.095 21.2836 36.6901 20.0545 36.9381 18.7356C37.1862 17.4166 37.0782 16.0553 36.6253 14.7919C36.1725 13.5286 35.3911 12.4087 34.3617 11.5476C35.3861 11.0635 36.522 10.8645 37.65 10.9717C38.7779 11.0789 39.856 11.4883 40.7708 12.1568C40.9074 12.2573 41.0749 12.3067 41.2442 12.2964L41.3349 12.2909C41.3741 12.2884 41.4129 12.285 41.4534 12.285C42.7481 12.2831 43.9933 12.7821 44.9285 13.6775C45.8636 14.5729 46.4161 15.7954 46.4704 17.0889C46.4772 17.2406 46.5306 17.3865 46.6233 17.5068C46.716 17.627 46.8435 17.7158 46.9884 17.761C48.0206 18.0823 48.9217 18.7281 49.5577 19.6023C50.1937 20.4766 50.5307 21.5326 50.5187 22.6137C50.5067 23.6947 50.1464 24.743 49.4911 25.6029C48.8359 26.4629 47.9208 27.0885 46.8817 27.3869V27.3873Z" stroke="#272621" stroke-width="0.4" mask="url(#path-1-outside-1)"/>
<path d="M30.5418 14.0548C30.4363 14.023 30.3382 13.9707 30.2529 13.901C30.1671 13.8308 30.0961 13.7442 30.0439 13.6464C29.9918 13.5485 29.9596 13.4413 29.9492 13.3309C29.9388 13.2206 29.9504 13.1092 29.9833 13.0033C30.0162 12.8975 30.0698 12.7992 30.1409 12.7142C30.2121 12.6291 30.2994 12.5591 30.3978 12.508C30.4963 12.457 30.6038 12.426 30.7143 12.4168C30.8246 12.4076 30.9357 12.4204 31.041 12.4544C31.0412 12.4544 31.0414 12.4545 31.0415 12.4545L31.0108 12.5497C31.6588 12.7515 32.2593 13.0823 32.7762 13.5221C33.2932 13.962 33.7158 14.5018 34.0187 15.1092C34.0637 15.1963 34.0908 15.2915 34.0986 15.3892C34.1064 15.4869 34.0946 15.5852 34.064 15.6783C34.0334 15.7714 33.9845 15.8575 33.9203 15.9316C33.8561 16.0056 33.7777 16.0661 33.6899 16.1096C33.602 16.153 33.5064 16.1785 33.4085 16.1846C33.3107 16.1907 33.2126 16.1772 33.1201 16.145C33.0275 16.1128 32.9422 16.0625 32.8693 15.997C32.7964 15.9315 32.7372 15.8521 32.6953 15.7635L30.5418 14.0548ZM30.5418 14.0548L30.5417 14.0553C30.9874 14.1905 31.4005 14.4159 31.7555 14.7173C32.1104 15.0186 32.3996 15.3895 32.6053 15.807M30.5418 14.0548L32.6053 15.807M32.6053 15.807C32.6529 15.9073 32.7199 15.9972 32.8025 16.0714C32.8853 16.1458 32.9821 16.2029 33.0872 16.2395C33.1923 16.2761 33.3037 16.2913 33.4147 16.2844C33.5258 16.2775 33.6344 16.2485 33.7342 16.1992C33.834 16.1499 33.9229 16.0812 33.9958 15.9971C34.0688 15.913 34.1243 15.8153 34.159 15.7095C34.1938 15.6038 34.2071 15.4922 34.1983 15.3813C34.1895 15.2706 34.1588 15.1627 34.1079 15.0639L32.6053 15.807Z" fill="#272621" stroke="#272621" stroke-width="0.2"/>
</g>
</svg>
