<svg width="56" height="57" viewBox="0 0 56 57" fill="none" xmlns="http://www.w3.org/2000/svg">
<path opacity="0.8" d="M41.6176 27.5778C41.6186 26.6452 41.1919 25.7636 40.4594 25.1841C41.2319 24.2763 41.4052 23.0037 40.9038 21.9235C40.4018 20.8427 39.3164 20.1517 38.123 20.1526H31.314L31.5953 19.4104C32.0381 18.2474 32.2642 17.0137 32.2632 15.7699V15.6593C32.2627 14.7135 31.8785 13.8081 31.1973 13.1497C30.5167 12.4912 29.5977 12.1357 28.65 12.1639C26.7316 12.2657 25.2335 13.8554 25.2501 15.7713C25.2501 16.6787 23.9718 18.7636 22.9362 20.1541H15.2571C14.7737 20.1541 14.3821 20.5447 14.3821 21.0268V38.496C14.3821 38.9781 14.7737 39.3687 15.2571 39.3687H36.7529C37.8584 39.3692 38.8784 38.7755 39.4219 37.8156C39.9648 36.8552 39.9477 35.6775 39.376 34.7337C40.2549 34.3411 40.8974 33.5585 41.1103 32.6215C41.3237 31.6844 41.082 30.7021 40.459 29.9696C41.1909 29.3905 41.6176 28.5095 41.6176 27.5778ZM16.1321 21.9001H22.4933V37.6232H16.1321V21.9001ZM38.5532 28.8889H38.1226C37.6392 28.8889 37.2476 29.2795 37.2476 29.7616C37.2476 30.2438 37.6392 30.6344 38.1226 30.6344C38.8481 30.6344 39.4365 31.2213 39.4365 31.9455C39.4365 32.6692 38.8481 33.256 38.1226 33.256H36.7529C36.2695 33.256 35.8779 33.6471 35.8779 34.1288C35.8779 34.611 36.2695 35.0015 36.7529 35.0015C37.4785 35.0015 38.0669 35.5884 38.0669 36.3126C38.0669 37.0363 37.4785 37.6232 36.7529 37.6232H24.2433V21.3225C24.985 20.344 27.0001 17.5222 27.0001 15.7718C26.9772 14.7978 27.7257 13.9776 28.6998 13.9085C29.1754 13.8939 29.6368 14.0721 29.9786 14.4023C30.3199 14.7325 30.5128 15.1869 30.5128 15.6613V15.7718C30.5137 16.8043 30.3258 17.8285 29.9586 18.7938L29.2291 20.72C29.1275 20.9884 29.1641 21.2889 29.3277 21.5251C29.4908 21.7608 29.7598 21.9015 30.0474 21.902H38.1226C38.8481 21.902 39.4365 22.4889 39.4365 23.2126C39.4365 23.9368 38.8481 24.5237 38.1226 24.5237C37.6392 24.5237 37.2476 24.9143 37.2476 25.3964C37.2476 25.8786 37.6392 26.2692 38.1226 26.2692H38.5532C39.2793 26.2692 39.8676 26.856 39.8676 27.5803C39.8676 28.3045 39.2793 28.8913 38.5532 28.8913V28.8889ZM18.7102 32.5625C17.4524 32.5625 16.4333 33.5794 16.4333 34.8335C16.4333 36.0881 17.4524 37.1045 18.7102 37.1045C19.9675 37.1045 20.987 36.0881 20.987 34.8335C20.9855 33.5799 19.967 32.564 18.7102 32.5625ZM18.7102 35.3585C18.4191 35.3585 18.1828 35.1233 18.1833 34.833C18.1833 34.5428 18.4191 34.307 18.7102 34.3075C19.0017 34.3075 19.2375 34.5433 19.237 34.8335C19.2365 35.1238 19.0007 35.3585 18.7102 35.3585ZM55.1194 26.4221C55.9275 25.1563 56.1937 23.6207 55.8587 22.1577C55.5242 20.6952 54.6165 19.4265 53.3382 18.6355C52.0609 17.8407 51.3568 16.3831 51.5301 14.8913C51.7074 13.4015 51.2792 11.9024 50.3412 10.7297C49.4032 9.55641 48.0336 8.80639 46.538 8.64665C45.0414 8.48398 43.7734 7.47633 43.2802 6.05762C42.7915 4.63843 41.7539 3.47347 40.3984 2.82231C39.043 2.17165 37.4824 2.08837 36.0654 2.59244C34.646 3.09261 33.0645 2.7327 32.0035 1.66758C30.9459 0.600502 29.504 0 27.9996 0C26.4952 0 25.0533 0.600502 23.9957 1.66758C22.9347 2.73319 21.3527 3.0931 19.9338 2.59244C18.5163 2.08885 16.9568 2.17213 15.6013 2.8228C14.2463 3.47395 13.2083 4.63892 12.7195 6.05762C12.2273 7.47682 10.9588 8.48545 9.4622 8.64811C7.96612 8.80786 6.59651 9.55787 5.65901 10.7311C4.72104 11.9044 4.29282 13.4029 4.46957 14.8932C4.6434 16.3845 3.93931 17.8422 2.66246 18.637C1.38416 19.4279 0.476451 20.6961 0.141981 22.1587C-0.192976 23.6212 0.0731343 25.1563 0.880255 26.4221C1.68542 27.6908 1.68542 29.3087 0.880255 30.5774C0.072646 31.8437 -0.193465 33.3793 0.141005 34.8418C0.475962 36.3048 1.38367 37.5735 2.66149 38.3645C3.93931 39.1593 4.64291 40.617 4.46957 42.1082C4.29282 43.5985 4.72104 45.0971 5.65901 46.2703C6.59651 47.4436 7.96612 48.1936 9.4622 48.3534C10.9583 48.5155 12.2268 49.5237 12.7195 50.9419C13.2083 52.3611 14.2463 53.526 15.6018 54.1772C16.9572 54.8284 18.5173 54.9111 19.9347 54.4076C21.3537 53.9064 22.9357 54.2663 23.9967 55.3324C25.0543 56.3995 26.4962 57 28.0006 57C29.505 57 30.9468 56.3995 32.0044 55.3324C33.0655 54.2668 34.647 53.9069 36.0664 54.4076C37.4834 54.9111 39.0434 54.8279 40.3984 54.1767C41.7539 53.526 42.7915 52.3611 43.2802 50.9419C43.7729 49.5232 45.0414 48.5146 46.538 48.3519C48.0336 48.1921 49.4032 47.4421 50.3412 46.2689C51.2792 45.0956 51.7074 43.5971 51.5301 42.1068C51.3568 40.6155 52.0604 39.1578 53.3377 38.363C54.616 37.5721 55.5237 36.3034 55.8587 34.8408C56.1937 33.3778 55.9275 31.8422 55.1194 30.5759C54.3153 29.3077 54.3153 27.6908 55.1194 26.4221ZM53.6434 31.5144C54.2 32.3872 54.3836 33.4455 54.1527 34.4536C53.9222 35.4618 53.2962 36.336 52.4154 36.8815C50.5619 38.0347 49.5404 40.1499 49.7924 42.3142C49.9144 43.3414 49.619 44.3744 48.9725 45.1828C48.3261 45.9913 47.3822 46.508 46.3515 46.6181C44.1796 46.8548 42.3393 48.3183 41.625 50.3774C41.288 51.3554 40.5727 52.1585 39.6386 52.607C38.7046 53.0556 37.6294 53.1131 36.6528 52.7658C34.5933 52.0387 32.2984 52.5613 30.7589 54.1076C30.0303 54.843 29.0367 55.2569 27.9996 55.2569C26.963 55.2569 25.9694 54.843 25.2404 54.1076C23.7018 52.5603 21.4059 52.0377 19.3464 52.7658C18.3698 53.1131 17.2946 53.0556 16.3606 52.607C15.4265 52.1585 14.7112 51.3554 14.3747 50.3774C13.6604 48.3183 11.8196 46.8548 9.64823 46.6181C8.61699 46.508 7.67315 45.9913 7.02668 45.1828C6.3802 44.3744 6.08528 43.3414 6.20735 42.3142C6.4593 40.1499 5.43831 38.0343 3.58433 36.8815C2.70299 36.336 2.07751 35.4618 1.84655 34.4536C1.61609 33.4455 1.79968 32.3872 2.35631 31.5144C3.52476 29.674 3.52476 27.326 2.35631 25.4851C1.79968 24.6128 1.61609 23.5545 1.84655 22.5459C2.07751 21.5377 2.70299 20.6635 3.58433 20.1185C5.43783 18.9653 6.4593 16.8501 6.20784 14.6858C6.08577 13.6586 6.38069 12.6256 7.02716 11.8172C7.67364 11.0082 8.61748 10.4915 9.64872 10.3814C11.8201 10.1452 13.6609 8.68123 14.3752 6.62209C14.7117 5.64414 15.427 4.84152 16.3611 4.39248C17.2951 3.94393 18.3703 3.88695 19.3469 4.2342C21.4064 4.96084 23.7018 4.43875 25.2408 2.89244C25.9698 2.15704 26.9635 1.74306 28.0001 1.74306C29.0372 1.74306 30.0308 2.15704 30.7593 2.89244C32.2989 4.43875 34.5938 4.96084 36.6533 4.2342C37.6299 3.88695 38.7051 3.94393 39.6391 4.39248C40.5732 4.84152 41.2885 5.64414 41.6254 6.62209C42.3398 8.68123 44.1801 10.1452 46.352 10.3814C47.3827 10.4915 48.3265 11.0082 48.973 11.8172C49.6195 12.6256 49.9149 13.6586 49.7928 14.6858C49.5404 16.8501 50.5619 18.9657 52.4159 20.1185C53.2967 20.6635 53.9227 21.5377 54.1531 22.5459C54.3841 23.5545 54.2005 24.6128 53.6439 25.4851C52.4749 27.326 52.4749 29.6735 53.6434 31.5144ZM28.0001 7.26934C16.2444 7.26934 6.71516 16.7751 6.71516 28.5002C6.71516 40.2254 16.2453 49.7307 28.0006 49.7307C39.7563 49.7307 49.2855 40.2254 49.2855 28.4998C49.2723 16.78 39.75 7.28249 28.0001 7.26934ZM28.0001 47.9856C17.2111 47.9852 8.46514 39.2616 8.46514 28.5002C8.46514 17.7389 17.2111 9.01533 28.0001 9.01533C38.789 9.01484 47.5355 17.7384 47.5355 28.4998C47.5233 39.2562 38.7842 47.973 28.0001 47.9852V47.9856Z" fill="#272621"/>
</svg>
