<svg width="15" height="14" viewBox="0 0 15 14" fill="none" xmlns="http://www.w3.org/2000/svg">
<path d="M9.25022 8.51326C9.69126 8.07222 9.91178 7.54003 9.91178 6.91669C9.91178 6.29335 9.69126 5.76116 9.25022 5.32012C8.80918 4.87908 8.27699 4.65856 7.65366 4.65856C7.03032 4.65856 6.49813 4.87908 6.05709 5.32012C5.61605 5.76116 5.39553 6.29335 5.39553 6.91669C5.39553 7.54003 5.61605 8.07222 6.05709 8.51326C6.49813 8.9543 7.03032 9.17482 7.65366 9.17482C8.27699 9.17482 8.80918 8.9543 9.25022 8.51326ZM10.1147 4.45568C10.7909 5.13195 11.1291 5.95228 11.1291 6.91669C11.1291 7.8811 10.7909 8.70144 10.1147 9.3777C9.4384 10.054 8.61807 10.3921 7.65366 10.3921C6.68925 10.3921 5.86891 10.054 5.19265 9.3777C4.51639 8.70144 4.17826 7.8811 4.17826 6.91669C4.17826 5.95228 4.51639 5.13195 5.19265 4.45568C5.86891 3.77942 6.68925 3.44129 7.65366 3.44129C8.61807 3.44129 9.4384 3.77942 10.1147 4.45568ZM11.8435 2.72681C12.0023 2.88558 12.0817 3.0767 12.0817 3.30016C12.0817 3.52362 12.0023 3.71474 11.8435 3.87351C11.6848 4.03229 11.4937 4.11167 11.2702 4.11167C11.0467 4.11167 10.8556 4.03229 10.6968 3.87351C10.5381 3.71474 10.4587 3.52362 10.4587 3.30016C10.4587 3.0767 10.5381 2.88558 10.6968 2.72681C10.8556 2.56803 11.0467 2.48864 11.2702 2.48864C11.4937 2.48864 11.6848 2.56803 11.8435 2.72681ZM8.32404 1.35958C7.91828 1.35958 7.69482 1.35958 7.65366 1.35958C7.61249 1.35958 7.38609 1.35958 6.97445 1.35958C6.5687 1.3537 6.25997 1.3537 6.04827 1.35958C5.83657 1.35958 5.55136 1.3684 5.19265 1.38604C4.83982 1.3978 4.53697 1.42721 4.28411 1.47425C4.03712 1.51541 3.82836 1.56834 3.65783 1.63302C3.3638 1.75063 3.10506 1.92117 2.8816 2.14463C2.65814 2.36809 2.4876 2.62684 2.36999 2.92086C2.3053 3.0914 2.24944 3.3031 2.20239 3.55596C2.16123 3.80294 2.13183 4.10579 2.11419 4.46451C2.10243 4.81734 2.0936 5.0996 2.08772 5.3113C2.08772 5.523 2.08772 5.83467 2.08772 6.24631C2.0936 6.65207 2.09654 6.87553 2.09654 6.91669C2.09654 6.95786 2.0936 7.18426 2.08772 7.59589C2.08772 8.00165 2.08772 8.31038 2.08772 8.52208C2.0936 8.73378 2.10243 9.01899 2.11419 9.3777C2.13183 9.73053 2.16123 10.0334 2.20239 10.2862C2.24944 10.5332 2.3053 10.742 2.36999 10.9125C2.4876 11.2065 2.65814 11.4653 2.8816 11.6888C3.10506 11.9122 3.3638 12.0827 3.65783 12.2004C3.82836 12.265 4.03712 12.3209 4.28411 12.368C4.53697 12.4091 4.83982 12.4385 5.19265 12.4562C5.55136 12.4679 5.83657 12.4767 6.04827 12.4826C6.25997 12.4826 6.5687 12.4826 6.97445 12.4826C7.38609 12.4767 7.61249 12.4738 7.65366 12.4738C7.69482 12.4738 7.91828 12.4767 8.32404 12.4826C8.73568 12.4826 9.04735 12.4826 9.25904 12.4826C9.47074 12.4767 9.75301 12.4679 10.1058 12.4562C10.4646 12.4385 10.7674 12.4091 11.0144 12.368C11.2672 12.3209 11.4789 12.265 11.6495 12.2004C11.9435 12.0827 12.2023 11.9122 12.4257 11.6888C12.6492 11.4653 12.8197 11.2065 12.9373 10.9125C13.002 10.742 13.0549 10.5332 13.0961 10.2862C13.1431 10.0334 13.1725 9.73053 13.1843 9.3777C13.2019 9.01899 13.2108 8.73378 13.2108 8.52208C13.2166 8.31038 13.2166 8.00165 13.2108 7.59589C13.2108 7.18426 13.2108 6.95786 13.2108 6.91669C13.2108 6.87553 13.2108 6.65207 13.2108 6.24631C13.2166 5.83467 13.2166 5.523 13.2108 5.3113C13.2108 5.0996 13.2019 4.81734 13.1843 4.46451C13.1725 4.10579 13.1431 3.80294 13.0961 3.55596C13.0549 3.3031 13.002 3.0914 12.9373 2.92086C12.8197 2.62684 12.6492 2.36809 12.4257 2.14463C12.2023 1.92117 11.9435 1.75063 11.6495 1.63302C11.4789 1.56834 11.2672 1.51541 11.0144 1.47425C10.7674 1.42721 10.4646 1.3978 10.1058 1.38604C9.75301 1.3684 9.47074 1.35958 9.25904 1.35958C9.04735 1.3537 8.73568 1.3537 8.32404 1.35958ZM14.3839 4.12049C14.4133 4.63798 14.428 5.57005 14.428 6.91669C14.428 8.26334 14.4133 9.1954 14.3839 9.71289C14.3251 10.936 13.9605 11.8828 13.2902 12.5532C12.6198 13.2236 11.673 13.5882 10.4499 13.647C9.93237 13.6764 9.0003 13.6911 7.65366 13.6911C6.30701 13.6911 5.37495 13.6764 4.85746 13.647C3.63431 13.5882 2.68754 13.2236 2.01716 12.5532C1.34678 11.8828 0.982182 10.936 0.923377 9.71289C0.893974 9.1954 0.879272 8.26334 0.879272 6.91669C0.879272 5.57005 0.893974 4.63798 0.923377 4.12049C0.982182 2.89734 1.34678 1.95057 2.01716 1.28019C2.68754 0.60981 3.63431 0.245216 4.85746 0.186411C5.37495 0.157008 6.30701 0.142307 7.65366 0.142307C9.0003 0.142307 9.93237 0.157008 10.4499 0.186411C11.673 0.245216 12.6198 0.60981 13.2902 1.28019C13.9605 1.95057 14.3251 2.89734 14.3839 4.12049Z" fill="white"/>
</svg>
