<svg width="11" height="16" viewBox="0 0 11 16" fill="none" xmlns="http://www.w3.org/2000/svg">
<path opacity="0.5" d="M8.39404 6.84055C7.61193 7.62266 6.6681 8.01372 5.56256 8.01372C4.45701 8.01372 3.51319 7.62266 2.73108 6.84055C1.94896 6.05844 1.55791 5.11755 1.55791 4.01789C1.55791 2.91235 1.94896 1.96852 2.73108 1.18641C3.51319 0.404299 4.45701 0.0132425 5.56256 0.0132425C6.6681 0.0132425 7.61193 0.404299 8.39404 1.18641C9.17615 1.96852 9.56721 2.91235 9.56721 4.01789C9.56721 5.11755 9.17615 6.05844 8.39404 6.84055ZM6.94742 2.6242C6.56519 2.23609 6.10357 2.04203 5.56256 2.04203C5.02155 2.04203 4.55698 2.23609 4.16887 2.6242C3.78663 3.00644 3.59552 3.471 3.59552 4.01789C3.59552 4.5589 3.78663 5.02347 4.16887 5.41158C4.55698 5.79382 5.02155 5.98493 5.56256 5.98493C6.10357 5.98493 6.56519 5.79382 6.94742 5.41158C7.33554 5.02347 7.5296 4.5589 7.5296 4.01789C7.5296 3.471 7.33554 3.00644 6.94742 2.6242ZM10.1758 8.49887C10.2523 8.65764 10.2964 8.80465 10.3082 8.93991C10.3199 9.06928 10.3052 9.18689 10.2641 9.29274C10.2288 9.39859 10.1523 9.51326 10.0347 9.63675C9.9171 9.75436 9.79067 9.86315 9.65541 9.96312C9.52604 10.0572 9.34669 10.1778 9.11734 10.3248C8.44108 10.7541 7.5149 11.0304 6.33879 11.1539L6.98271 11.789L9.33787 14.1442C9.51428 14.3265 9.60249 14.5441 9.60249 14.7969C9.60249 15.0498 9.51428 15.2644 9.33787 15.4408L9.23201 15.5555C9.04972 15.7319 8.83214 15.8201 8.57927 15.8201C8.32641 15.8201 8.10883 15.7319 7.92653 15.5555C7.53254 15.1556 6.74749 14.3676 5.57138 13.1915L3.21622 15.5555C3.03392 15.7319 2.81634 15.8201 2.56348 15.8201C2.31062 15.8201 2.09598 15.7319 1.91956 15.5555L1.81371 15.4408C1.63141 15.2644 1.54027 15.0498 1.54027 14.7969C1.54027 14.5441 1.63141 14.3265 1.81371 14.1442L4.16887 11.789L4.80397 11.1539C3.61022 11.0304 2.67815 10.7541 2.00777 10.3248C1.77843 10.1778 1.59613 10.0572 1.46088 9.96312C1.33151 9.86315 1.20802 9.75436 1.0904 9.63675C0.972794 9.51326 0.893406 9.39859 0.852242 9.29274C0.816959 9.18689 0.805198 9.06928 0.816959 8.93991C0.82872 8.80465 0.872824 8.65764 0.949271 8.49887C1.00808 8.38125 1.0904 8.27834 1.19625 8.19014C1.3021 8.10193 1.4256 8.03724 1.56673 7.99608C1.70786 7.95491 1.87252 7.9608 2.06069 8.01372C2.24887 8.06665 2.43999 8.16955 2.63405 8.32245C2.66345 8.34597 2.70755 8.37831 2.76636 8.41948C2.82516 8.46064 2.9516 8.53415 3.14565 8.64C3.33971 8.73997 3.54259 8.82818 3.75429 8.90462C3.96599 8.98107 4.23649 9.05164 4.5658 9.11632C4.89512 9.18101 5.22737 9.21335 5.56256 9.21335C6.09769 9.21335 6.60929 9.13984 7.09738 8.99283C7.58546 8.83994 7.9383 8.68998 8.15588 8.54297L8.49107 8.32245C8.68512 8.16955 8.87624 8.06665 9.06442 8.01372C9.2526 7.9608 9.41725 7.95491 9.55839 7.99608C9.69952 8.03724 9.82301 8.10193 9.92886 8.19014C10.0347 8.27834 10.117 8.38125 10.1758 8.49887Z" fill="white"/>
</svg>
