<svg width="22" height="22" viewBox="0 0 22 22" fill="none" xmlns="http://www.w3.org/2000/svg">
<path d="M20.8473 17.3452L20.8462 17.3501C20.7551 17.7415 20.6501 18.0957 20.5224 18.3879C20.3512 18.791 20.057 19.1267 19.7354 19.4061C19.4057 19.6926 18.9967 19.9632 18.5289 20.2226L18.5209 20.227L18.5209 20.227C17.5973 20.7281 16.6421 21 15.6662 21C15.399 21 15.1348 20.9851 14.874 20.9551L14.8553 20.9529L14.8366 20.95C14.5661 20.9084 14.2785 20.8431 13.9764 20.7581L13.9683 20.7558L13.9683 20.7558C13.7024 20.6786 13.4943 20.6167 13.348 20.571L13.311 20.5594L13.2749 20.545C13.1585 20.4984 12.9337 20.4124 12.5921 20.2843C12.2433 20.1536 12.0554 20.0849 12.0005 20.0666L11.9904 20.0632L11.9804 20.0596C11.0876 19.7408 10.2759 19.3576 9.55094 18.9057L20.8473 17.3452ZM20.8473 17.3452C20.9396 16.939 21 16.5537 21 16.2159C21 16.0633 20.9885 15.8262 20.8954 15.5892C20.8103 15.3629 20.671 15.2044 20.5832 15.1157C20.4786 15.0099 20.3619 14.9191 20.2524 14.8428C20.0392 14.6941 19.7698 14.5427 19.4646 14.3892C19.2933 14.2905 19.0628 14.1628 18.7768 14.0075C18.4828 13.8479 18.2143 13.7011 17.9712 13.567C17.7534 13.4425 17.5474 13.3221 17.353 13.2058C17.2833 13.1567 17.1768 13.0851 17.052 13.0018C16.8557 12.8624 16.6555 12.7364 16.4587 12.6433C16.2203 12.5262 15.9532 12.4545 15.6662 12.4545C15.3434 12.4545 15.0721 12.569 14.8768 12.6822C14.6794 12.7967 14.4995 12.945 14.3384 13.1001C14.0404 13.3789 13.7686 13.6858 13.5227 14.0194C13.3393 14.2611 13.1461 14.4874 12.9434 14.6987C12.8908 14.6682 12.819 14.6262 12.7269 14.5721C12.6616 14.5298 12.6077 14.4953 12.5663 14.4691C12.5649 14.4683 12.5632 14.4671 12.5611 14.4658C12.5413 14.4533 12.4929 14.4226 12.4439 14.3955L12.4439 14.3954C11.3473 13.7871 10.4231 13.0998 9.66165 12.3383C8.9002 11.5769 8.21291 10.6527 7.60457 9.55609L7.60453 9.55611C7.57744 9.50708 7.54671 9.45867 7.53415 9.43889C7.53285 9.43684 7.53175 9.4351 7.53086 9.43369C7.50474 9.39234 7.47017 9.33842 7.42794 9.27308C7.37382 9.18103 7.33181 9.1092 7.30127 9.05655C7.51255 8.85387 7.73887 8.66074 7.98063 8.47727C8.31423 8.23142 8.62108 7.95956 8.89995 7.66156C9.05504 7.50043 9.2033 7.32057 9.3178 7.12317C9.43104 6.92793 9.54545 6.65663 9.54545 6.33381C9.54545 6.04681 9.47376 5.7797 9.35666 5.54128C9.26359 5.34451 9.13761 5.14429 8.99816 4.94802C8.91494 4.82325 8.84331 4.71674 8.79418 4.64698C8.67789 4.4526 8.55751 4.24657 8.43302 4.0288C8.29893 3.78572 8.1521 3.51721 7.99249 3.22319L7.15907 3.67562L7.99249 3.22319C7.83723 2.93719 7.70948 2.70672 7.61083 2.53539C7.45729 2.23017 7.3059 1.96076 7.15725 1.74759C7.0809 1.63811 6.9901 1.52137 6.8843 1.41675C6.79562 1.32907 6.63736 1.18994 6.41133 1.10477C6.17414 1.01147 5.93677 1 5.78409 1C5.44634 1 5.06101 1.06039 4.6548 1.15271L4.6548 1.1527L4.64991 1.15383C4.25822 1.24492 3.90376 1.35008 3.6115 1.47786C3.2087 1.64913 2.87312 1.94315 2.59385 2.26458C2.30739 2.59428 2.03677 3.0033 1.77742 3.47106L1.77739 3.47104L1.77302 3.47908C1.27191 4.40271 1 5.35792 1 6.33381C1 6.60102 1.01485 6.86517 1.04494 7.12599L1.04711 7.14475L1.04998 7.16342C1.09159 7.43387 1.15693 7.7215 1.24189 8.02359L1.24186 8.0236L1.2442 8.03165C1.32141 8.29759 1.38333 8.50569 1.42904 8.65197L1.44062 8.68903L1.45505 8.72508C1.50161 8.8415 1.58755 9.06631 1.71566 9.40794C1.84644 9.75669 1.91514 9.94463 1.93342 9.99947L1.93678 10.0096M20.8473 17.3452L1.93678 10.0096M1.93678 10.0096L1.94036 10.0196M1.93678 10.0096L1.94036 10.0196M1.94036 10.0196C2.25916 10.9122 2.6423 11.7238 3.09406 12.4486C3.81752 13.6117 4.79075 14.7959 5.99744 16.0026C7.20385 17.209 8.38777 18.182 9.55054 18.9054L1.94036 10.0196Z" stroke="#DC1E1E" stroke-width="2"/>
</svg>
