<svg width="18" height="11" viewBox="0 0 18 11" fill="none" xmlns="http://www.w3.org/2000/svg">
<path d="M17.2233 1.60007C17.3586 1.97642 16.9176 2.84086 15.9002 4.19338C15.7591 4.38156 15.568 4.63148 15.3269 4.94315C15.0916 5.24306 14.9299 5.45476 14.8417 5.57825C14.7535 5.70174 14.6624 5.84876 14.5683 6.01929C14.4801 6.18395 14.4448 6.30744 14.4624 6.38977C14.4859 6.46621 14.5242 6.56618 14.5771 6.68967C14.6359 6.81317 14.7329 6.9396 14.8682 7.06897C15.0034 7.19834 15.171 7.35418 15.371 7.53647C15.3945 7.54823 15.4092 7.56 15.4151 7.57176C16.2442 8.34211 16.8058 8.99191 17.0998 9.52116C17.1175 9.55056 17.1351 9.58878 17.1528 9.63583C17.1763 9.67699 17.1969 9.75344 17.2145 9.86517C17.238 9.9769 17.238 10.0769 17.2145 10.1651C17.191 10.2533 17.1175 10.3356 16.994 10.4121C16.8705 10.4826 16.697 10.5179 16.4736 10.5179L14.2154 10.5532C14.0743 10.5826 13.9097 10.5679 13.7215 10.5091C13.5333 10.4503 13.3804 10.3856 13.2628 10.315L13.0864 10.2092C12.91 10.0857 12.7041 9.89751 12.4689 9.64465C12.2337 9.39178 12.0308 9.16538 11.8603 8.96544C11.6956 8.75963 11.5163 8.58909 11.3222 8.45384C11.134 8.3127 10.9694 8.26566 10.8283 8.3127C10.8106 8.31858 10.7871 8.33035 10.7577 8.34799C10.7283 8.35975 10.6783 8.40091 10.6077 8.47148C10.5372 8.54205 10.4725 8.63025 10.4137 8.7361C10.3607 8.83607 10.3108 8.98897 10.2637 9.19479C10.2226 9.39472 10.2049 9.62112 10.2108 9.87399C10.2108 9.9622 10.199 10.0445 10.1755 10.121C10.1579 10.1915 10.1373 10.2445 10.1138 10.2797L10.0785 10.3238C9.97263 10.4356 9.8168 10.5003 9.61098 10.5179H8.59659C8.17907 10.5414 7.74979 10.4944 7.30875 10.3768C6.86771 10.2533 6.47959 10.0974 6.1444 9.90927C5.81509 9.71521 5.51224 9.52116 5.23586 9.3271C4.96535 9.12716 4.75953 8.95662 4.6184 8.81549L4.39788 8.60379C4.33907 8.54499 4.25675 8.45678 4.1509 8.33917C4.05093 8.22156 3.84217 7.95399 3.52462 7.53647C3.20707 7.11895 2.8954 6.67497 2.58961 6.20453C2.28382 5.73409 1.92217 5.11369 1.50465 4.34334C1.09301 3.57299 0.710779 2.77323 0.357947 1.94408C0.322664 1.84999 0.305022 1.7706 0.305022 1.70592C0.305022 1.64123 0.313843 1.59419 0.331484 1.56478L0.366768 1.51186C0.454976 1.40013 0.622571 1.34426 0.869554 1.34426L3.28646 1.32662C3.35702 1.33838 3.42465 1.35896 3.48934 1.38837C3.55402 1.41189 3.60107 1.43541 3.63047 1.45893L3.67457 1.4854C3.76866 1.55008 3.83923 1.64417 3.88627 1.76766C4.00388 2.06169 4.13914 2.36748 4.29203 2.68503C4.44492 2.99669 4.56547 3.23486 4.65368 3.39951L4.79482 3.65532C4.96535 4.00815 5.13001 4.31394 5.28878 4.57268C5.44756 4.83142 5.58869 5.0343 5.71218 5.18132C5.84155 5.32245 5.96504 5.43418 6.08265 5.51651C6.20027 5.59883 6.30023 5.64 6.38256 5.64C6.46489 5.64 6.54428 5.6253 6.62072 5.59589C6.63249 5.59001 6.64719 5.57531 6.66483 5.55179C6.68247 5.52827 6.71775 5.46358 6.77068 5.35773C6.8236 5.25188 6.86183 5.11369 6.88535 4.94315C6.91475 4.77262 6.94415 4.53446 6.97356 4.22867C7.00296 3.92288 7.00296 3.55535 6.97356 3.12607C6.9618 2.89084 6.93533 2.67621 6.89417 2.48215C6.85301 2.28809 6.81184 2.15284 6.77068 2.07639L6.71775 1.97054C6.57074 1.7706 6.32082 1.64417 5.96798 1.59124C5.89154 1.57948 5.90624 1.50892 6.01209 1.37955C6.10618 1.26782 6.21791 1.17961 6.34728 1.11492C6.65895 0.962027 7.36167 0.89146 8.45545 0.903222C8.93766 0.909102 9.33459 0.947325 9.64626 1.01789C9.76387 1.04729 9.8609 1.08846 9.93735 1.14138C10.0197 1.18843 10.0814 1.25899 10.1226 1.35308C10.1638 1.44129 10.1932 1.53538 10.2108 1.63535C10.2343 1.72944 10.2461 1.86175 10.2461 2.03229C10.2461 2.20282 10.2431 2.36454 10.2373 2.51743C10.2314 2.67032 10.2226 2.87908 10.2108 3.14371C10.2049 3.40245 10.202 3.64355 10.202 3.86701C10.202 3.9317 10.199 4.05519 10.1932 4.23749C10.1873 4.41979 10.1843 4.56092 10.1843 4.66089C10.1902 4.76086 10.202 4.88141 10.2196 5.02254C10.2373 5.15779 10.2696 5.27246 10.3166 5.36655C10.3696 5.45476 10.4372 5.52533 10.5195 5.57825C10.5666 5.59001 10.6166 5.60177 10.6695 5.61354C10.7224 5.6253 10.7988 5.59295 10.8988 5.51651C10.9988 5.44006 11.1105 5.34009 11.234 5.2166C11.3575 5.08723 11.5104 4.89023 11.6927 4.6256C11.875 4.3551 12.0749 4.03755 12.2925 3.67296C12.6453 3.06138 12.9599 2.39982 13.2363 1.68827C13.2599 1.62947 13.2893 1.57948 13.3245 1.53832C13.3598 1.49128 13.3922 1.45893 13.4216 1.44129L13.4569 1.41483C13.4686 1.40895 13.4833 1.40307 13.501 1.39719C13.5186 1.38543 13.5568 1.37661 13.6156 1.37072C13.6744 1.35896 13.7332 1.35602 13.792 1.3619L16.3324 1.34426C16.5618 1.31486 16.75 1.32368 16.897 1.37072C17.044 1.41189 17.1351 1.45893 17.1704 1.51186L17.2233 1.60007Z" fill="white"/>
</svg>
